<?xml version="1.0" encoding="UTF-8"?><svg id="Layer_2" xmlns="http://www.w3.org/2000/svg" xmlns:xlink="http://www.w3.org/1999/xlink" viewBox="0 0 566.07 848.16"><defs><style>.cls-1{fill:none;}.cls-2{clip-path:url(#clippath);}.cls-3{fill:#00d8e9;}.cls-4{fill:#b7dd77;}.cls-5{clip-path:url(#clippath-1);}.cls-6{clip-path:url(#clippath-4);}.cls-7{clip-path:url(#clippath-3);}.cls-8{clip-path:url(#clippath-2);}.cls-9{clip-path:url(#clippath-7);}.cls-10{clip-path:url(#clippath-8);}.cls-11{clip-path:url(#clippath-6);}.cls-12{clip-path:url(#clippath-5);}.cls-13{clip-path:url(#clippath-9);}.cls-14{clip-path:url(#clippath-20);}.cls-15{clip-path:url(#clippath-21);}.cls-16{clip-path:url(#clippath-24);}.cls-17{clip-path:url(#clippath-23);}.cls-18{clip-path:url(#clippath-22);}.cls-19{clip-path:url(#clippath-25);}.cls-20{clip-path:url(#clippath-44);}.cls-21{clip-path:url(#clippath-45);}.cls-22{clip-path:url(#clippath-40);}.cls-23{clip-path:url(#clippath-42);}.cls-24{clip-path:url(#clippath-41);}.cls-25{clip-path:url(#clippath-47);}.cls-26{clip-path:url(#clippath-43);}.cls-27{clip-path:url(#clippath-46);}.cls-28{clip-path:url(#clippath-48);}.cls-29{clip-path:url(#clippath-49);}.cls-30{clip-path:url(#clippath-27);}.cls-31{clip-path:url(#clippath-28);}.cls-32{clip-path:url(#clippath-26);}.cls-33{clip-path:url(#clippath-29);}.cls-34{clip-path:url(#clippath-34);}.cls-35{clip-path:url(#clippath-35);}.cls-36{clip-path:url(#clippath-36);}.cls-37{clip-path:url(#clippath-37);}.cls-38{clip-path:url(#clippath-39);}.cls-39{clip-path:url(#clippath-33);}.cls-40{clip-path:url(#clippath-32);}.cls-41{clip-path:url(#clippath-30);}.cls-42{clip-path:url(#clippath-38);}.cls-43{clip-path:url(#clippath-31);}.cls-44{clip-path:url(#clippath-53);}.cls-45{clip-path:url(#clippath-54);}.cls-46{clip-path:url(#clippath-50);}.cls-47{clip-path:url(#clippath-51);}.cls-48{clip-path:url(#clippath-52);}.cls-49{clip-path:url(#clippath-55);}.cls-50{clip-path:url(#clippath-14);}.cls-51{clip-path:url(#clippath-13);}.cls-52{clip-path:url(#clippath-12);}.cls-53{clip-path:url(#clippath-10);}.cls-54{clip-path:url(#clippath-15);}.cls-55{clip-path:url(#clippath-17);}.cls-56{clip-path:url(#clippath-16);}.cls-57{clip-path:url(#clippath-19);}.cls-58{clip-path:url(#clippath-11);}.cls-59{clip-path:url(#clippath-18);}</style><clipPath id="clippath"><rect class="cls-1" x="319.47" y="293.39" width="191.37" height="191.37"/></clipPath><clipPath id="clippath-1"><path class="cls-1" d="M415.16,293.39c-52.85,0-95.69,42.84-95.69,95.69s42.84,95.68,95.69,95.68,95.68-42.84,95.68-95.68-42.84-95.69-95.68-95.69Z"/></clipPath><clipPath id="clippath-2"><rect class="cls-1" x="415.16" y="12.68" width="31.57" height="31.58"/></clipPath><clipPath id="clippath-3"><path class="cls-1" d="M430.94,12.68c-8.72,0-15.78,7.06-15.78,15.78s7.06,15.79,15.78,15.79,15.78-7.07,15.78-15.79-7.06-15.78-15.78-15.78Z"/></clipPath><clipPath id="clippath-4"><rect class="cls-1" x="415.16" y="67.88" width="31.57" height="31.58"/></clipPath><clipPath id="clippath-5"><path class="cls-1" d="M430.94,67.88c-8.72,0-15.78,7.07-15.78,15.79s7.06,15.78,15.78,15.78,15.78-7.07,15.78-15.78-7.06-15.79-15.78-15.79Z"/></clipPath><clipPath id="clippath-6"><rect class="cls-1" x="533.76" y="73.14" width="31.57" height="31.58"/></clipPath><clipPath id="clippath-7"><path class="cls-1" d="M549.55,73.14c-8.72,0-15.78,7.06-15.78,15.78s7.06,15.79,15.78,15.79,15.78-7.07,15.78-15.79-7.06-15.78-15.78-15.78Z"/></clipPath><clipPath id="clippath-8"><rect class="cls-1" x="533.76" y="129.69" width="31.57" height="31.58"/></clipPath><clipPath id="clippath-9"><path class="cls-1" d="M549.55,129.69c-8.72,0-15.78,7.07-15.78,15.79s7.06,15.78,15.78,15.78,15.78-7.06,15.78-15.78-7.06-15.79-15.78-15.79Z"/></clipPath><clipPath id="clippath-10"><rect class="cls-1" x="533.76" y="187.96" width="31.57" height="31.58"/></clipPath><clipPath id="clippath-11"><path class="cls-1" d="M549.55,187.96c-8.72,0-15.78,7.07-15.78,15.78s7.06,15.79,15.78,15.79,15.78-7.07,15.78-15.79-7.06-15.78-15.78-15.78Z"/></clipPath><clipPath id="clippath-12"><rect class="cls-1" x="242.1" y="516.34" width="58.27" height="58.26"/></clipPath><clipPath id="clippath-13"><path class="cls-1" d="M271.23,516.34c-16.09,0-29.13,13.04-29.13,29.13s13.04,29.13,29.13,29.13,29.14-13.04,29.14-29.13-13.05-29.13-29.14-29.13Z"/></clipPath><clipPath id="clippath-14"><rect class="cls-1" y="426.49" width="58.26" height="58.27"/></clipPath><clipPath id="clippath-15"><path class="cls-1" d="M29.13,426.49c-16.09,0-29.13,13.04-29.13,29.14s13.04,29.13,29.13,29.13,29.13-13.04,29.13-29.13-13.04-29.14-29.13-29.14Z"/></clipPath><clipPath id="clippath-16"><rect class="cls-1" x="242.1" y="219.53" width="58.27" height="58.26"/></clipPath><clipPath id="clippath-17"><path class="cls-1" d="M271.23,219.53c-16.09,0-29.13,13.04-29.13,29.13s13.04,29.13,29.13,29.13,29.14-13.04,29.14-29.13-13.05-29.13-29.14-29.13Z"/></clipPath><clipPath id="clippath-18"><rect class="cls-1" x="1.87" y="129.69" width="58.26" height="58.27"/></clipPath><clipPath id="clippath-19"><path class="cls-1" d="M31,129.69c-16.09,0-29.13,13.04-29.13,29.14s13.04,29.13,29.13,29.13,29.13-13.04,29.13-29.13-13.04-29.14-29.13-29.14Z"/></clipPath><clipPath id="clippath-20"><rect class="cls-1" y="25.41" width="58.26" height="58.27"/></clipPath><clipPath id="clippath-21"><path class="cls-1" d="M29.13,25.41C13.04,25.41,0,38.45,0,54.54s13.04,29.14,29.13,29.14,29.13-13.04,29.13-29.14-13.04-29.13-29.13-29.13Z"/></clipPath><clipPath id="clippath-22"><rect class="cls-1" x="242.1" y="104.72" width="58.27" height="58.26"/></clipPath><clipPath id="clippath-23"><path class="cls-1" d="M271.23,104.72c-16.09,0-29.13,13.04-29.13,29.13s13.04,29.13,29.13,29.13,29.14-13.04,29.14-29.13-13.05-29.13-29.14-29.13Z"/></clipPath><clipPath id="clippath-24"><rect class="cls-1" x="103.07" y="124.8" width="31.58" height="31.58"/></clipPath><clipPath id="clippath-25"><path class="cls-1" d="M118.85,124.8c-8.71,0-15.78,7.07-15.78,15.79s7.07,15.78,15.78,15.78,15.79-7.07,15.79-15.78-7.07-15.79-15.79-15.79Z"/></clipPath><clipPath id="clippath-26"><rect class="cls-1" x="103.07" y="235.32" width="31.58" height="31.58"/></clipPath><clipPath id="clippath-27"><path class="cls-1" d="M118.85,235.32c-8.71,0-15.78,7.07-15.78,15.79s7.07,15.78,15.78,15.78,15.79-7.07,15.79-15.78-7.07-15.79-15.79-15.79Z"/></clipPath><clipPath id="clippath-28"><rect class="cls-1" x="103.07" y="293.39" width="31.58" height="31.58"/></clipPath><clipPath id="clippath-29"><path class="cls-1" d="M118.85,293.39c-8.71,0-15.78,7.07-15.78,15.79s7.07,15.78,15.78,15.78,15.79-7.07,15.79-15.78-7.07-15.79-15.79-15.79Z"/></clipPath><clipPath id="clippath-30"><rect class="cls-1" x="103.07" y="587.93" width="31.58" height="31.57"/></clipPath><clipPath id="clippath-31"><path class="cls-1" d="M118.85,587.93c-8.71,0-15.78,7.06-15.78,15.78s7.07,15.78,15.78,15.78,15.79-7.06,15.79-15.78-7.07-15.78-15.79-15.78Z"/></clipPath><clipPath id="clippath-32"><rect class="cls-1" x="103.07" y="492.24" width="31.58" height="31.58"/></clipPath><clipPath id="clippath-33"><path class="cls-1" d="M118.85,492.24c-8.71,0-15.78,7.07-15.78,15.79s7.07,15.78,15.78,15.78,15.79-7.06,15.79-15.78-7.07-15.79-15.79-15.79Z"/></clipPath><clipPath id="clippath-34"><rect class="cls-1" x="103.07" y="646" width="31.58" height="31.58"/></clipPath><clipPath id="clippath-35"><path class="cls-1" d="M118.85,646c-8.71,0-15.78,7.07-15.78,15.79s7.07,15.78,15.78,15.78,15.79-7.07,15.79-15.78-7.07-15.79-15.79-15.79Z"/></clipPath><clipPath id="clippath-36"><rect class="cls-1" x="103.07" y="761.56" width="31.58" height="31.58"/></clipPath><clipPath id="clippath-37"><path class="cls-1" d="M118.85,761.56c-8.71,0-15.78,7.06-15.78,15.78s7.07,15.79,15.78,15.79,15.79-7.07,15.79-15.79-7.07-15.78-15.79-15.78Z"/></clipPath><clipPath id="clippath-38"><rect class="cls-1" x="534.5" y="545.47" width="31.57" height="31.58"/></clipPath><clipPath id="clippath-39"><path class="cls-1" d="M550.28,545.47c-8.72,0-15.78,7.06-15.78,15.78s7.06,15.79,15.78,15.79,15.78-7.07,15.78-15.79-7.06-15.78-15.78-15.78Z"/></clipPath><clipPath id="clippath-40"><rect class="cls-1" x="533.76" y="715.18" width="31.57" height="31.57"/></clipPath><clipPath id="clippath-41"><circle class="cls-1" cx="549.55" cy="730.97" r="15.78"/></clipPath><clipPath id="clippath-42"><rect class="cls-1" x="533.76" y="602.22" width="31.57" height="31.58"/></clipPath><clipPath id="clippath-43"><path class="cls-1" d="M549.55,602.22c-8.72,0-15.78,7.07-15.78,15.79s7.06,15.78,15.78,15.78,15.78-7.07,15.78-15.78-7.06-15.79-15.78-15.79Z"/></clipPath><clipPath id="clippath-44"><rect class="cls-1" x="533.76" y="773.26" width="31.57" height="31.58"/></clipPath><clipPath id="clippath-45"><path class="cls-1" d="M549.55,773.26c-8.72,0-15.78,7.07-15.78,15.79s7.06,15.78,15.78,15.78,15.78-7.06,15.78-15.78-7.06-15.79-15.78-15.79Z"/></clipPath><clipPath id="clippath-46"><rect class="cls-1" x="415.16" y="572.13" width="31.57" height="31.58"/></clipPath><clipPath id="clippath-47"><path class="cls-1" d="M430.94,572.13c-8.72,0-15.78,7.07-15.78,15.79s7.06,15.78,15.78,15.78,15.78-7.07,15.78-15.78-7.06-15.79-15.78-15.79Z"/></clipPath><clipPath id="clippath-48"><rect class="cls-1" x="226.32" y="789.05" width="31.58" height="31.58"/></clipPath><clipPath id="clippath-49"><path class="cls-1" d="M242.1,789.05c-8.72,0-15.78,7.06-15.78,15.78s7.06,15.79,15.78,15.79,15.79-7.07,15.79-15.79-7.07-15.78-15.79-15.78Z"/></clipPath><clipPath id="clippath-50"><rect class="cls-1" x="383.58" y="816.59" width="31.58" height="31.58"/></clipPath><clipPath id="clippath-51"><path class="cls-1" d="M399.37,816.59c-8.72,0-15.78,7.07-15.78,15.79s7.06,15.78,15.78,15.78,15.79-7.06,15.79-15.78-7.07-15.79-15.79-15.79Z"/></clipPath><clipPath id="clippath-52"><rect class="cls-1" x="103.07" y="816.59" width="31.58" height="31.58"/></clipPath><clipPath id="clippath-53"><path class="cls-1" d="M118.85,816.59c-8.71,0-15.78,7.07-15.78,15.79s7.07,15.78,15.78,15.78,15.79-7.06,15.79-15.78-7.07-15.79-15.79-15.79Z"/></clipPath><clipPath id="clippath-54"><rect class="cls-1" x="242.1" width="58.27" height="58.26"/></clipPath><clipPath id="clippath-55"><path class="cls-1" d="M271.23,0c-16.09,0-29.13,13.04-29.13,29.13s13.04,29.13,29.13,29.13,29.14-13.04,29.14-29.13S287.32,0,271.23,0Z"/></clipPath></defs><g id="Layer_1-2"><g class="cls-2"><g class="cls-5"><path class="cls-3" d="M319.47,293.39h191.37v191.37h-191.37v-191.37Z"/></g></g><g class="cls-8"><g class="cls-7"><path class="cls-4" d="M415.16,12.68h31.57v31.58h-31.57V12.68Z"/></g></g><g class="cls-6"><g class="cls-12"><path class="cls-4" d="M415.16,67.88h31.57v31.58h-31.57v-31.58Z"/></g></g><g class="cls-11"><g class="cls-9"><path class="cls-3" d="M533.76,73.14h31.57v31.58h-31.57v-31.58Z"/></g></g><g class="cls-10"><g class="cls-13"><path class="cls-3" d="M533.76,129.69h31.57v31.58h-31.57v-31.58Z"/></g></g><g class="cls-53"><g class="cls-58"><path class="cls-3" d="M533.76,187.96h31.57v31.58h-31.57v-31.58Z"/></g></g><g class="cls-52"><g class="cls-51"><path class="cls-3" d="M242.1,516.34h58.27v58.26h-58.27v-58.26Z"/></g></g><g class="cls-50"><g class="cls-54"><path class="cls-3" d="M0,426.49H58.26v58.27H0v-58.27Z"/></g></g><g class="cls-56"><g class="cls-55"><path class="cls-3" d="M242.1,219.53h58.27v58.26h-58.27v-58.26Z"/></g></g><g class="cls-59"><g class="cls-57"><path class="cls-3" d="M1.87,129.69H60.12v58.27H1.87v-58.27Z"/></g></g><g class="cls-14"><g class="cls-15"><path class="cls-4" d="M0,25.41H58.26v58.27H0V25.41Z"/></g></g><g class="cls-18"><g class="cls-17"><path class="cls-4" d="M242.1,104.72h58.27v58.26h-58.27v-58.26Z"/></g></g><g class="cls-16"><g class="cls-19"><path class="cls-3" d="M103.07,124.8h31.58v31.58h-31.58v-31.58Z"/></g></g><g class="cls-32"><g class="cls-30"><path class="cls-3" d="M103.07,235.32h31.58v31.58h-31.58v-31.58Z"/></g></g><g class="cls-31"><g class="cls-33"><path class="cls-4" d="M103.07,293.39h31.58v31.58h-31.58v-31.58Z"/></g></g><g class="cls-41"><g class="cls-43"><path class="cls-4" d="M103.07,587.93h31.58v31.57h-31.58v-31.57Z"/></g></g><g class="cls-40"><g class="cls-39"><path class="cls-3" d="M103.07,492.24h31.58v31.58h-31.58v-31.58Z"/></g></g><g class="cls-34"><g class="cls-35"><path class="cls-3" d="M103.07,646h31.58v31.58h-31.58v-31.58Z"/></g></g><g class="cls-36"><g class="cls-37"><path class="cls-4" d="M103.07,761.56h31.58v31.58h-31.58v-31.58Z"/></g></g><g class="cls-42"><g class="cls-38"><path class="cls-3" d="M534.5,545.47h31.57v31.58h-31.57v-31.58Z"/></g></g><g class="cls-22"><g class="cls-24"><path class="cls-3" d="M533.76,715.18h31.57v31.57h-31.57v-31.57Z"/></g></g><g class="cls-23"><g class="cls-26"><path class="cls-4" d="M533.76,602.22h31.57v31.58h-31.57v-31.58Z"/></g></g><g class="cls-20"><g class="cls-21"><path class="cls-4" d="M533.76,773.26h31.57v31.58h-31.57v-31.58Z"/></g></g><g class="cls-27"><g class="cls-25"><path class="cls-3" d="M415.16,572.13h31.57v31.58h-31.57v-31.58Z"/></g></g><g class="cls-28"><g class="cls-29"><path class="cls-3" d="M226.32,789.05h31.58v31.58h-31.58v-31.58Z"/></g></g><g class="cls-46"><g class="cls-47"><path class="cls-3" d="M383.58,816.59h31.58v31.58h-31.58v-31.58Z"/></g></g><g class="cls-48"><g class="cls-44"><path class="cls-3" d="M103.07,816.59h31.58v31.58h-31.58v-31.58Z"/></g></g><g class="cls-45"><g class="cls-49"><path class="cls-3" d="M242.1,0h58.27V58.26h-58.27V0Z"/></g></g></g></svg>