<?xml version="1.0" encoding="UTF-8"?><svg id="Layer_2" xmlns="http://www.w3.org/2000/svg" viewBox="0 0 808.14 741.88"><defs><style>.cls-1{fill:#152644;}.cls-2{opacity:.2;}</style></defs><g id="Layer_2-2"><g id="Layer_1-2"><g class="cls-2"><path class="cls-1" d="M808.14,.04h-260.17c.4,.61,.81,1.13,1.25,1.74-2.62,1.94-5.28,3.92-8.02,5.94-1.81-2.5-3.63-4.97-5.6-7.67h-24.82c-1.13,.81-2.26,1.66-3.39,2.46-.6-.81-1.21-1.66-1.81-2.46h-99.98c2.42,3.63,5.48,8.2,8.14,12.19-3.95,2.95-8.7,6.42-12.57,9.29-3.3-4.36-7.17-9.53-10.2-13.53,3.67-2.22,8.54-5.17,13.18-7.95h-28.33c2.01,2.75,4.84,4.97,8.42,6.9-9.47,1.05-15.72,5.49-17.33,14.21-1.65,9.17,3.22,15.42,11.77,19.46-11.89,2.58-17.33,7.71-17.85,16.39-.44,6.99,4.07,14.5,11,16.15,3.99,.97,8.99,.85,12.61-.81,3.83-1.74,6.57-5.85,8.66-7.83,2.5,4.52,5.48,9.85,8.5,15.3-6.29,1.25-10.52,5.94-13.18,12.28-1.09,8.96,1.97,15.71,10.28,19.83,.73,.36,1.13,1.25,1.69,1.94-9.47-.16-15.88,4.81-17.53,13.53-1.41,7.63,3.18,15.55,10.56,18.17,8.83,3.15,16.32-.65,22.33-11.71-.2,8.92,3.79,14.9,11.65,18.57-12.21,3.72-17.29,8.92-17.29,17.4,0,7.15,4.67,14.17,11.77,15.59,4.03,.77,8.7,.08,12.65-1.25,3.3-1.13,6.29-3.27,9.31-5.25,1.17,6.06,5.12,10.34,11.16,13.45-11.61,3.11-16.64,7.99-17.21,16.35-.48,6.99,3.99,14.62,10.88,16.19,4.15,.97,9.15,.52,13.22-.93,3.99-1.41,7.21-4.85,9.19-6.26-.16,5.37,4.51,10.62,12.17,14.74-9.51,1.29-15.84,5.25-17.37,14.25-1.53,9.17,3.51,14.86,11.49,19.1-10.2,.89-16.12,5.77-17.13,13.65-1.01,7.75,2.9,14.62,9.91,17.36,6.97,2.75,15.52,.57,18.86-6.1,1.97-3.96,2.9-9.41,1.89-13.61-.97-4.08-5.04-7.39-7.78-11.06,6.61-1.13,11.93-4.48,14.51-11.43,.28-.73,1.29-1.21,1.98-1.82-2.34,8.32,2.7,13.32,8.38,18.09-11.61,5.13-15.68,10.7-14.39,19.42,1.13,7.35,6.53,12.72,13.9,13.73,7.21,1.01,14.15-2.91,17.05-9.61,3.3-7.63,.85-14.58-6.97-21.12,4.43-2.95,9.11-6.02,13.06-8.6,3.34,3.92,7.09,8.28,10.8,12.6-8.02,1.62-13.7,6.54-14.63,15.79-.64,6.34,3.27,12.88,9.23,15.67,9.47,4.4,16.64,.61,22.81-7.55,1.85,8.88,6.61,14.38,14.83,15.42,8.74,1.13,14.71-3.55,18.7-12.11,.36,8.92,4.39,14.46,12.33,18.09-2.42,.61-3.95,.93-5.48,1.33-7.38,2.1-12.33,8.56-12.25,15.95,.08,7.67,5.44,14.17,13.1,15.87,7.29,1.65,14.47-1.82,18.05-8.68,.77-1.45,1.69-2.79,2.58-4.16-.36,9.29,3.22,16.35,10.8,18.21,4.11,1.01,9.11,.44,13.22-.93,4.07-1.37,7.54-4.64,9.59-6.02,1.17,7.11,5.36,12.56,13.46,13.97,9.43,1.65,15.43-3.31,19.46-11.79,1.97,11.14,6.49,16.88,14.63,18.01,9.15,1.25,15.15-3.51,18.98-11.87,2.22,11.23,6.61,16.8,14.71,17.89,9.15,1.25,15.15-3.51,19.26-12.48,.48,8.4,3.71,14.21,11.28,17.97-11.04,2.38-16.2,7.95-16.36,16.31-.12,7.31,4.72,13.97,11.48,15.83,7.5,2.06,15.35-1.33,18.9-8.12,3.95-7.63,1.57-14.98-6.57-22.09,4.55-2.99,9.31-6.14,13.3-8.76,3.22,4.24,6.77,8.88,10.07,13.24-9.15,2.91-13.7,8.36-13.42,16.88,.24,7.02,5.24,13.28,11.89,14.86,4.43,1.05,9.11,.36,12.69-1.86v-27.5c-.24-.28-.48-.52-.68-.81,.2-.2,.44-.4,.68-.61v-99.98c-2.54,1.78-5.08,3.59-7.5,5.29-2.42-3.68-5-7.59-7.62-11.51,3.38-2.26,7.21-4.85,11-7.39,1.33,1.78,2.7,3.59,4.07,5.41v-22.05c-.4,.28-.77,.57-1.17,.85-2.42-3.59-4.67-6.99-6.97-10.38,2.58-1.74,5.32-3.63,8.14-5.53v-26.25c-.36-.57-.73-1.13-1.13-1.66,.36-.24,.77-.53,1.13-.77V.04h.11Zm-26.11,208.19c1.97,2.71,3.95,5.45,6.08,8.4-3.06,2.26-5.88,4.36-8.7,6.42-1.93-2.95-3.91-5.94-5.92-9.01,2.86-1.9,5.72-3.84,8.54-5.81Zm-.81-26.85c2.42-1.74,4.35-3.15,6.61-4.76,1.45,2.02,2.86,4.04,4.51,6.34-2.14,1.74-4.23,3.43-6.65,5.41-1.45-2.34-2.9-4.56-4.47-6.99Zm2.02,69.25c-3.06,2.02-6.01,4-9.11,6.02-2.3-3.07-4.59-6.18-6.97-9.33,2.86-2.06,5.88-4.28,8.95-6.46,2.26,3.03,4.55,6.26,7.13,9.77h0Zm-17.57-145.56c1.37,1.78,2.54,3.27,3.87,5.01-1.81,1.25-3.39,2.34-5.2,3.59-1.21-1.66-2.22-3.07-3.51-4.89,1.53-1.17,3.02-2.34,4.84-3.72h0Zm-5.84,33.04c1.49,1.9,2.9,3.71,4.55,5.82-2.02,1.53-3.99,3.03-6.25,4.76-1.57-2.34-2.78-4.16-4.27-6.38,1.85-1.29,3.71-2.59,5.96-4.2h.01Zm-5.72,32.63c1.41,1.94,2.82,3.92,4.43,6.22-2.3,1.86-4.51,3.68-6.93,5.65-1.61-2.14-3.1-4.2-5-6.74,2.62-1.78,4.84-3.31,7.49-5.13h.01Zm-5.64,32.18c1.93,2.5,3.87,4.97,5.96,7.71-2.54,1.74-5.08,3.47-7.9,5.41-1.73-2.54-3.39-4.89-5.12-7.43,2.42-1.98,4.71-3.79,7.05-5.69h.01Zm-7.62,48.66c-2.18-3.15-4.47-6.46-7.01-10.09,2.82-1.74,5.84-3.59,8.95-5.49,2.38,2.99,4.71,5.9,7.05,8.84-3.1,2.38-5.96,4.48-8.99,6.74Zm4.72,26.93c-3.55,2.54-7.42,5.33-11.12,7.99-2.34-3.55-4.88-7.43-7.5-11.43,3.47-2.3,7.21-4.76,10.88-7.19,2.5,3.39,5.16,7.03,7.74,10.62h0Zm-13.46-179.71c1.45,2.1,2.5,3.55,3.67,5.25-1.73,1.25-3.27,2.38-5.2,3.8-1.21-1.74-2.34-3.31-3.63-5.17,1.65-1.25,3.18-2.38,5.16-3.88h0Zm-5.84,33.19c1.57,2.14,2.94,4.04,4.43,6.1-1.85,1.33-3.55,2.54-5.44,3.92-1.53-2.14-2.94-4.04-4.59-6.34,2.14-1.41,3.79-2.46,5.6-3.67h0Zm-5.52,33.3c1.77,2.34,3.35,4.36,5.08,6.58-2.18,1.58-4.35,3.15-6.73,4.85-1.69-2.34-3.27-4.52-5.08-7.03,2.26-1.45,4.35-2.83,6.73-4.4h0Zm-5.84,32.67c1.93,2.58,3.59,4.8,5.48,7.31-2.3,1.9-4.67,3.88-7.09,5.9-1.77-2.75-3.51-5.41-5.36-8.28,2.22-1.57,4.43-3.15,6.97-4.93h0Zm-7.78,47.61c-2.18-3.15-4.51-6.5-6.97-10.01,3.06-2.1,6.41-4.36,9.83-6.7,2.34,3.31,4.59,6.54,6.81,9.69-3.18,2.34-6.37,4.64-9.67,7.03h0Zm4.79,26.84c-3.83,2.79-7.62,5.53-11.16,8.16-2.46-3.71-5.08-7.71-7.62-11.51,3.35-2.18,7.13-4.64,11-7.19,2.46,3.27,5.2,7.03,7.78,10.54h0Zm-13.1-179.2c1.29,1.7,2.3,3.11,3.59,4.85-1.57,1.13-2.98,2.14-4.64,3.31-1.21-1.45-2.38-2.83-3.87-4.64,1.69-1.17,3.22-2.26,4.92-3.51h0Zm-5.96,33.02c1.57,2.06,3.02,3.92,4.67,6.06-1.89,1.58-3.67,3.07-5.76,4.85-1.69-2.62-3.06-4.76-4.63-7.23,2.02-1.29,3.83-2.42,5.72-3.68h0Zm-4.92,32.1c1.81,2.46,3.59,4.93,5.52,7.59-2.82,2.1-5.2,3.88-7.74,5.77-1.77-2.67-3.63-5.41-5.52-8.24,2.58-1.7,5.04-3.31,7.74-5.13h0Zm-5.64,32.68c1.65,2.46,3.34,5.05,5.24,7.91-2.66,2.14-5.36,4.28-8.3,6.66-2.01-2.75-4.07-5.57-6.17-8.36,3.06-2.06,6.13-4.12,9.23-6.22h0Zm-9.07,48.79c-2.01-3.11-3.99-6.22-6-9.41,3.1-2.3,6.21-4.6,9.35-6.95,2.26,2.95,4.51,5.9,6.89,9-3.63,2.59-6.93,4.97-10.24,7.35h0Zm5.12,26.66c-3.83,2.79-7.62,5.57-11.2,8.2-2.46-3.71-5.2-7.83-7.78-11.67,3.51-2.34,7.42-4.93,11.12-7.43,2.54,3.47,5.28,7.31,7.86,10.9h0Zm-12.61-180.09c1.45,1.78,2.86,3.51,4.67,5.73-2.26,1.66-4.15,3.03-6.21,4.52-1.41-2.06-2.7-4-4.27-6.26,1.89-1.29,3.63-2.5,5.8-4h.01Zm-5.64,32.8c1.69,2.26,3.34,4.4,5.16,6.86-2.66,1.98-4.88,3.63-7.17,5.33-1.61-2.38-3.18-4.68-4.96-7.35,2.22-1.57,4.43-3.11,6.97-4.85h0Zm-5.68,32.8c1.85,2.58,3.67,5.17,5.6,7.87-2.58,1.94-5.2,3.96-8.1,6.14-2.05-3.07-3.95-5.81-5.8-8.6,2.78-1.78,5.52-3.59,8.3-5.41h0Zm-70,2.87c-2.26-3.19-4.51-6.38-6.77-9.61,3.22-2.14,6.37-4.2,9.51-6.26,2.02,2.91,4.15,5.9,6.41,9.08-2.98,2.14-6.04,4.44-9.15,6.78h0Zm3.99,27.1c-3.22,2.42-6.77,5.05-10.11,7.55-2.54-3.59-5.12-7.23-7.54-10.7,3.43-2.26,7.09-4.64,10.64-6.99,2.1,3.11,4.47,6.5,7.01,10.13h0Zm15.11,61.71c2.82,3.67,5.64,7.43,8.18,10.78-3.95,2.87-8.26,5.98-12.33,8.96-2.05-3.47-4.55-7.71-6.93-11.79,3.47-2.5,7.38-5.29,11.08-7.96h0Zm2.02-14.57c-2.42-3.43-5-7.07-7.46-10.54,3.39-2.22,7.17-4.72,11.08-7.31,2.05,3.03,4.39,6.58,6.53,9.77-3.34,2.62-6.89,5.45-10.15,8.07h0Zm6.53-34.07c-2.22-3.15-4.55-6.5-7.05-10.09,3.22-2.14,6.69-4.44,9.99-6.62,2.1,3.07,4.35,6.3,6.57,9.57-3.14,2.34-6.29,4.72-9.51,7.15h0Zm6.12-34.69c-2.05-2.91-4.19-5.98-6.29-8.92,2.98-1.98,5.92-3.96,8.87-5.9,1.89,2.71,3.83,5.49,6.01,8.56-2.9,2.1-5.6,4.12-8.58,6.26h-.01Zm18.62,88.91c2.62,3.63,5.6,7.75,8.1,11.27-3.79,2.75-7.86,5.69-11.65,8.44-2.42-3.68-5.2-7.96-7.9-12.03,3.75-2.5,7.66-5.13,11.45-7.67h0Zm2.7-14.99c-2.09-3.31-4.11-6.5-6.25-9.85,2.98-2.18,6.25-4.6,9.47-6.99,2.05,3.11,4.23,6.38,6.37,9.57-3.22,2.42-6.57,4.97-9.59,7.27h0Zm6.37-33.55c-2.14-3.03-4.39-6.26-6.77-9.61,2.98-2.02,6.21-4.16,9.43-6.3,2.1,3.07,4.31,6.22,6.29,9.13-3.18,2.42-6.01,4.56-8.95,6.78h0Zm-7.66-154.04c1.49,2.06,2.62,3.63,3.99,5.57-1.89,1.53-3.67,2.95-5.68,4.52-1.41-2.02-2.74-3.88-4.31-6.06,2.05-1.41,3.79-2.58,6.01-4.04h-.01Zm-6.09,33c1.61,2.18,3.27,4.32,4.92,6.54-2.22,1.7-4.27,3.27-6.69,5.13-1.65-2.42-3.1-4.56-4.84-7.07,2.1-1.49,4.15-2.91,6.61-4.6h0Zm-5.56,32.99c1.85,2.62,3.55,5.05,5.24,7.47-2.38,1.82-4.76,3.59-7.41,5.65-1.85-2.58-3.75-5.25-5.76-8.04,2.78-1.78,5.36-3.43,7.94-5.09h-.01Zm-16.2-104.93c1.21,1.66,2.34,3.19,3.75,5.05-1.85,1.49-3.63,2.91-5.68,4.52-1.37-1.78-2.54-3.31-3.99-5.25,1.93-1.41,3.75-2.75,5.92-4.32Zm-5.4,32.99c1.49,1.94,2.9,3.76,4.47,5.73-2.54,1.9-4.59,3.43-6.73,5.09-1.33-1.98-2.66-3.92-4.15-6.14,2.1-1.53,4.07-3.03,6.41-4.68h0Zm-6.21,32.22c1.77,2.38,3.59,4.85,5.44,7.35-2.5,1.86-5,3.71-7.58,5.61-1.89-2.66-3.67-5.21-5.6-7.87,2.54-1.66,4.96-3.27,7.74-5.09Zm-5.72,32.95c1.9,2.75,3.79,5.49,5.68,8.28-2.7,2.02-5.36,4.04-8.22,6.18-2.18-3.11-4.11-5.86-6.13-8.72,2.86-1.9,5.76-3.84,8.66-5.73h.01ZM577.03,.73c1.65,2.34,3.14,4.4,4.92,6.95-2.5,1.82-4.67,3.47-6.97,5.17-1.69-2.38-3.3-4.64-5.2-7.27,2.38-1.57,4.71-3.15,7.25-4.85Zm-5.88,33.23c1.53,2.34,2.98,4.56,4.55,6.9-2.34,1.82-4.47,3.47-6.73,5.21-1.65-2.42-3.22-4.72-4.88-7.15,2.22-1.57,4.47-3.15,7.05-4.97h.01Zm-5.8,31.99c2.02,2.91,3.79,5.49,5.72,8.28-2.58,1.94-5.2,3.96-8.14,6.14-1.93-2.71-3.99-5.53-6.21-8.64,2.78-1.82,5.6-3.71,8.62-5.77h.01Zm-5.88,33.14c2.02,2.87,4.11,5.9,6.33,9-3.14,2.3-5.96,4.36-9.03,6.58-2.14-2.95-4.39-6.06-6.73-9.29,2.98-1.98,6.17-4.12,9.43-6.3h0Zm-5.92,33.08c2.09,3.03,4.43,6.38,6.81,9.85-3.06,2.26-6.37,4.72-9.75,7.27-2.5-3.47-4.88-6.86-7.34-10.3,3.18-2.1,6.73-4.48,10.28-6.82Zm1.73,43.77c-3.55,2.62-7.29,5.41-10.84,8.08-2.54-3.76-5.2-7.63-7.86-11.51,3.34-2.18,7.29-4.76,11.2-7.31,2.3,3.27,4.96,7.11,7.49,10.74h.01Zm-17.53-148.88c1.61,2.46,3.18,4.97,5,7.75-2.66,2.14-5.4,4.28-8.02,6.34-2.14-2.79-4.07-5.33-6.09-8.04,2.94-1.98,6-4,9.11-6.06h0Zm-5.68,32.8c1.93,2.71,3.91,5.45,6.01,8.4-2.9,2.14-5.92,4.44-9.15,6.82-1.89-2.87-3.83-5.77-5.72-8.64,3.02-2.22,5.96-4.4,8.86-6.58Zm-6.12,32.46c2.1,3.07,4.35,6.46,6.73,9.93-3.06,2.26-6.37,4.68-9.71,7.15-2.38-3.27-4.88-6.74-7.38-10.18,3.47-2.34,6.93-4.64,10.36-6.9h0Zm1.49,43.93c-3.3,2.3-6.57,4.56-9.79,6.78-2.38-3.23-5-6.78-7.78-10.5,3.18-2.26,6.77-4.85,10.15-7.27,2.38,3.55,5,7.43,7.42,10.98h0Zm-23.21-116.12c2.05,3.07,4.31,6.38,6.53,9.69-3.18,2.3-6.33,4.64-9.47,6.99-2.38-3.31-4.76-6.62-7.09-9.89,3.39-2.3,6.65-4.52,10.04-6.78h-.01Zm-5.88,33.06c1.98,3.15,4.07,6.5,6.08,9.73-2.86,2.1-5.68,4.16-8.46,6.22-2.18-3.03-4.39-6.18-6.65-9.33,2.94-2.18,6.05-4.44,9.03-6.62Zm-5.6,33.27c2.22,3.07,4.63,6.34,7.17,9.81-3.18,2.3-6.65,4.72-9.95,7.11-2.46-3.31-5.08-6.86-7.78-10.5,3.47-2.1,6.97-4.24,10.56-6.42Zm-8.62,52.45c-2.62-3.88-5.6-8.32-8.46-12.56,3.55-2.1,7.42-4.4,11.16-6.58,2.66,3.47,5.52,7.19,8.3,10.74-3.55,2.66-7.49,5.69-11,8.4Zm6.41,25.16c-3.99,2.99-8.66,6.46-12.49,9.33-2.86-4.16-6.33-9.17-9.31-13.49,3.83-2.3,8.7-5.25,13.18-7.96,2.86,4,5.88,8.28,8.62,12.11h0ZM470.68,13.08c2.34,3.51,4.72,7.15,7.25,10.94-2.9,2.06-6.25,4.4-9.59,6.74-2.62-3.39-5.44-7.03-8.06-10.38,3.42-2.42,6.93-4.89,10.4-7.31h0Zm-5.48,34.53c2.06,2.87,4.43,6.18,6.81,9.53-3.1,2.67-6.45,5.57-9.71,8.4-2.5-3.55-5.32-7.55-8.06-11.39,3.35-2.02,7.05-4.24,10.96-6.54Zm-4.84,31.82c2.58,3.55,5.44,7.51,7.9,10.9-4.03,3.07-8.3,6.3-12.01,9.09-2.34-3.71-5-8-7.42-11.91,3.59-2.5,7.66-5.37,11.52-8.08h.01Zm2.58,44.78c-4.03,3.03-8.62,6.42-12.61,9.41-2.9-4.12-6.45-9.21-9.47-13.53,3.91-2.34,8.91-5.37,13.42-8.12,2.9,4.12,6.04,8.56,8.66,12.24h0ZM437.6,7.43c2.58,3.47,5.48,7.31,8.14,10.86-3.79,2.99-7.66,6.02-10.96,8.6-2.7-3.96-5.76-8.4-8.79-12.76,3.38-1.98,7.54-4.36,11.6-6.7h0Zm-5.12,32.38c2.78,3.96,5.8,8.28,8.5,12.11-3.95,2.99-8.5,6.38-12.21,9.17-2.82-4.08-6.21-8.96-9.15-13.2,3.79-2.42,8.46-5.33,12.86-8.08Zm-5.68,32.67c2.34,3.84,5.08,8.4,7.46,12.36-3.71,3.07-8.02,6.66-11.69,9.69-2.34-3.84-5.28-8.72-7.98-13.2,3.79-2.75,8.18-5.94,12.21-8.84h0Zm-32.72-15.88c-.81-6.42-4.47-12.19-12.17-15.18,8.06-.48,13.66-4.32,16.64-9.73,3.35,4.97,6.85,10.13,9.71,14.33-4.19,3.11-9.35,6.95-14.18,10.58h0Zm21.64,72.36c-1.25-7.27-5.24-14.01-15.07-15.06,8.26-.85,16.28-2.18,19.51-10.26,3.59,5.25,7.29,10.62,10.11,14.74-4.19,3.03-9.43,6.86-14.55,10.58Zm27.77,39.61c-.97-6.02-4.23-12.03-12.01-14.98,7.86-.61,13.5-4.36,16.48-9.81,3.26,4.93,6.65,10.01,9.59,14.41-4.03,2.95-9.15,6.74-14.06,10.38h0Zm27.61,39.93c-.81-6.14-4.23-12.03-10.48-14.33,5.16-3.15,10.84-6.62,15.6-9.49,2.7,3.92,6.21,9.04,9.07,13.2-4.15,3.11-9.27,6.99-14.18,10.62h-.01Zm28.49,44.26c-1.77-8.32-3.42-16.68-13.5-19.66,8.02-.44,14.02-3.84,17.13-10.01,3.43,5.01,6.97,10.26,10.44,15.38-6.29,1.57-13.18,4.8-14.06,14.29h-.01Zm6.17-39.17c-2.9-4.28-6.41-9.49-9.47-14.01,3.55-1.98,8.18-4.6,12.45-6.99,2.82,3.63,6.13,7.91,8.79,11.35-3.83,3.15-8.3,6.82-11.77,9.65Zm5.72-36.14c-2.58-3.47-5.44-7.39-8.26-11.23,3.55-2.1,7.5-4.48,11.28-6.74,2.7,3.51,5.48,7.23,8.02,10.54-3.59,2.42-7.46,5.01-11.04,7.43h0Zm21.52,73.49c-3.34-3.92-6.85-8.08-9.67-11.43,4.07-2.3,8.87-5.01,13.34-7.55,2.26,3.27,5,7.23,7.46,10.82-3.47,2.54-7.41,5.41-11.12,8.16h-.01Zm6.21-33.51c-2.74-3.63-5.8-7.71-8.74-11.63,3.67-2.5,7.7-5.25,11.41-7.75,2.66,3.72,5.6,7.87,8.5,11.91-3.55,2.38-7.62,5.09-11.16,7.47h-.01Zm27.97,68.32c-2.46,1.57-4.43,3.96-6.01,5.41-3.79-4.64-7.78-9.49-10.8-13.2,4.03-2.71,9.27-6.18,13.5-8.96,2.98,4.2,6.49,9.21,9.87,14.05-1.37,.53-4.23,1.21-6.57,2.71h.01Zm-1.49-27.71c-2.14-3.71-4.8-8.32-7.38-12.8,3.35-2.3,7.42-5.13,11.4-7.87,2.46,3.75,5.04,7.71,7.46,11.35-3.63,2.95-7.7,6.26-11.49,9.33h0Zm6.29-33.89c-2.46-3.75-5.24-7.91-7.94-11.99,3.67-2.42,7.58-5.01,11.53-7.59,2.42,3.47,5.2,7.43,7.78,11.1-3.79,2.83-7.82,5.81-11.36,8.48h-.01Zm21.48,73.81c-2.82-4.2-6.37-9.49-9.39-14.01,3.83-2.34,8.83-5.41,13.5-8.28,2.74,3.8,6.21,8.56,9.11,12.56-4.11,3.03-9.11,6.74-13.22,9.73Zm27.32,44.34c-1.49-8.12-3.51-15.91-13.14-18.82,8.14-.48,14.27-4,17.09-9.93,3.51,4.97,7.17,10.26,10.84,15.46-6.81,.73-12.45,5.17-14.79,13.29h0Zm6.33-38.4c-2.54-4-5.8-9.13-8.83-13.81,3.71-2.3,8.38-5.21,12.73-7.91,2.98,4,6.21,8.36,8.95,12.03-4.11,3.11-8.95,6.74-12.86,9.69h.01Zm27.2,44.62c-.89-9.53-4.23-15.63-10.36-18.09,5.08-3.23,10.56-6.7,15.03-9.57,2.94,4.08,6.57,9.12,10.07,14.01-5.88,1.01-11.69,4.56-14.75,13.65h0Zm6.49-38.96c-2.5-3.96-5.56-8.8-8.34-13.16,3.75-2.46,8.14-5.33,12.37-8.12,2.66,3.71,5.84,8.08,8.66,11.99-3.99,2.91-8.7,6.38-12.69,9.29h0Zm26.88,41.51c-.4-6.18-4.11-12.07-9.83-14.62,4.96-3.11,10.44-6.58,14.83-9.37,2.94,4.08,6.49,9.05,9.31,13-4.27,3.23-9.47,7.27-14.31,10.98h0Zm6.81-35.64c-2.42-3.84-5.4-8.56-8.18-12.96,3.75-2.5,8.06-5.41,12.01-8.03,2.9,3.92,6.13,8.24,8.79,11.83-3.99,2.87-8.46,6.18-12.61,9.17h-.01Zm27,45.42c-.4-9.65-3.99-15.3-9.67-18.25,5-3.31,10.24-6.74,14.43-9.49,3.02,4.2,6.65,9.17,10.07,13.89-6.08,1.05-11.69,4.64-14.83,13.85h0Zm6.69-39.45c-2.3-3.76-5.2-8.4-8.06-13,3.47-2.3,7.78-5.17,11.97-7.91,2.74,3.76,5.92,8.08,8.62,11.75-4.11,3.03-8.46,6.22-12.53,9.17h0Zm27.16,44.61c-.81-8.72-3.95-14.78-9.99-17.4,5.12-3.27,10.24-6.54,14.79-9.45,2.9,3.96,6.65,9.05,10.2,13.89-6.29,.77-11.77,4.52-14.99,12.96h-.01Zm6.57-38.44c-2.38-3.84-5.24-8.52-8.14-13.2,3.22-2.02,7.33-4.6,11.04-6.95,2.94,3.67,6.09,7.59,8.91,11.1-3.75,2.87-7.98,6.1-11.81,9.05h0Zm5.96-36.1c-2.54-3.51-5.04-7.03-7.49-10.42,3.3-2.02,6.85-4.16,10.44-6.34,2.34,3.03,4.8,6.26,7.46,9.73-3.3,2.26-6.89,4.68-10.4,7.03h-.01Zm21.32,75.14c-2.98-3.88-6.65-8.72-9.75-12.8,3.79-2.14,8.91-4.97,13.34-7.47,3.02,3.67,6.69,8.12,9.91,12.03-3.95,2.42-8.95,5.49-13.5,8.24Zm9.07-54.27c2.9,3.96,6.09,8.28,9.03,12.27-3.63,2.34-8.1,5.21-11.89,7.67-2.7-3.76-5.8-8-8.62-11.91,3.71-2.58,7.82-5.49,11.48-8.04h0Zm-6.33-157.71c-1.45-2.02-2.82-4.04-4.51-6.42,2.34-1.57,4.15-2.74,6.33-4.2,1.53,2.02,2.98,4,4.55,6.1-2.1,1.54-4.03,2.87-6.37,4.52h0Zm6.37-34.89c-1.25-1.62-2.38-3.11-3.95-5.13,2.02-1.37,3.47-2.34,5.2-3.47,1.33,1.82,2.5,3.39,3.75,5.09-1.73,1.21-3.18,2.22-5,3.51Z"/><path class="cls-1" d="M388.43,92.1c-2.34,8.8-7.09,15.14-17.37,16.11,9.91,7.71,12.57,15.22,8.62,23.06-3.43,6.82-11.4,10.34-18.82,8.28-7.29-2.02-12.01-9.12-11.32-17.08,.73-8.64,6.73-13.57,17.97-14.66-7.62-3.03-12.41-8.16-12.41-16.64,.04-8.2,6.29-14.82,14.51-15.79,7.86-.93,15.23,4.04,17.37,11.71,.48,1.74,.89,3.47,1.37,5.21,0-.04,.08-.2,.08-.2h0Z"/><path class="cls-1" d="M553.42,329.81c5.4-10.42,12.61-14.33,21.4-11.59,6.97,2.18,11.69,9.29,11.12,16.72-.6,8.03-6.69,14.21-14.67,14.94-8.87,.81-14.71-4.12-18.09-15.02-3.55,2.67-6.85,6.78-10.88,7.79-4.19,1.05-9.67,.2-13.62-1.74-6.69-3.27-8.99-11.83-6.37-18.82,2.7-7.23,9.91-11.31,17.81-10.14,8.06,1.17,12.74,7.43,13.3,17.85h0Z"/><path class="cls-1" d="M349.99,1.78c9.11,.16,16.24,7.75,15.92,16.84-.36,8.88-7.66,15.83-16.48,15.67-9.11-.16-16.24-7.75-15.92-16.84,.36-8.88,7.66-15.83,16.48-15.67Z"/><path class="cls-1" d="M731.9,413.68c-8.95-.12-15.88-7.19-15.84-16.15,.04-9.21,7.38-16.27,16.56-16.03,8.91,.24,15.72,7.47,15.55,16.47-.2,8.92-7.33,15.79-16.28,15.71h.01Z"/><path class="cls-1" d="M714.49,391.55c0,8.96-6.97,15.99-15.92,16.07-9.19,.08-16.36-7.19-16.2-16.39,.16-8.96,7.25-15.87,16.24-15.79,8.91,.12,15.88,7.15,15.88,16.11Z"/><path class="cls-1" d="M420.83,219.66c-8.95,.08-16.08-6.82-16.24-15.79-.16-9.21,7.01-16.47,16.2-16.39,8.95,.08,15.92,7.11,15.92,16.07s-6.93,16.03-15.88,16.11h0Z"/><path class="cls-1" d="M464.31,243.2c.08,8.96-6.77,16.03-15.68,16.19-9.19,.16-16.36-6.95-16.32-16.15,.08-8.96,7.01-15.87,16-15.87,8.95-.04,15.92,6.87,16,15.83Z"/><path class="cls-1" d="M646.99,379.64c-.04,9-7.01,15.87-16.04,15.79-8.99-.04-15.84-7.03-15.76-16.07,.04-9.01,7.01-15.87,16.04-15.79,8.99,.08,15.84,7.03,15.76,16.07Z"/><path class="cls-1" d="M359.66,51.48c.12,9.04-6.69,16.11-15.68,16.23-9.03,.12-16.08-6.7-16.2-15.71-.12-9.04,6.69-16.11,15.68-16.23s16.04,6.74,16.2,15.71Z"/><path class="cls-1" d="M664.6,401.56c-8.95-.08-15.84-7.07-15.84-16.03s7.25-16.23,16.48-15.99c8.91,.2,15.68,7.35,15.52,16.35-.16,8.88-7.21,15.75-16.16,15.67h0Z"/><path class="cls-1" d="M408.98,164.1c-.12,8.92-7.17,15.79-16.12,15.75-9.19-.08-16.16-7.35-15.84-16.6,.28-8.92,7.46-15.67,16.44-15.42,8.87,.16,15.68,7.31,15.51,16.27h0Z"/><path class="cls-1" d="M597.66,357.67c8.99,.12,15.76,7.27,15.52,16.35-.24,8.72-7.21,15.38-16.04,15.26-8.99-.12-15.76-7.27-15.52-16.35,.24-8.72,7.21-15.38,16.04-15.26Z"/><path class="cls-1" d="M353.41,85.6c-.04,8.92-7.17,15.83-16.12,15.63-8.62-.16-15.35-7.15-15.31-15.87,.04-8.92,7.17-15.83,16.12-15.63,8.62,.2,15.35,7.19,15.31,15.87Z"/><path class="cls-1" d="M580.66,367.4c.04,8.72-6.77,15.67-15.47,15.79-8.71,.12-15.72-6.66-15.92-15.34-.16-8.96,6.81-16.11,15.76-16.07,8.7,0,15.55,6.86,15.64,15.63h-.01Z"/><path class="cls-1" d="M741.69,430.03c.04,8.6-6.97,15.67-15.55,15.71-8.58,.04-15.64-6.98-15.68-15.59-.04-8.6,6.89-15.59,15.55-15.71,8.54-.08,15.68,6.99,15.68,15.59Z"/><path class="cls-1" d="M708.04,424.18c-.08,8.6-7.13,15.59-15.72,15.55-8.58-.08-15.56-7.15-15.52-15.79,.08-8.6,7.05-15.51,15.76-15.51s15.52,7.19,15.48,15.75h0Z"/><path class="cls-1" d="M457.95,276.92c.08,8.68-6.81,15.75-15.48,15.83s-15.72-6.82-15.8-15.46c-.08-8.68,6.81-15.75,15.43-15.83,8.71-.12,15.72,6.78,15.84,15.46h.01Z"/><path class="cls-1" d="M430.34,237.42c-.04,8.72-6.93,15.59-15.64,15.63-8.95,.04-15.92-7.15-15.72-16.11,.2-8.68,7.21-15.43,15.96-15.3,8.62,.08,15.43,7.07,15.39,15.79h.01Z"/><path class="cls-1" d="M503.36,305.91c8.99-.12,16,6.82,16,15.83-.04,8.76-6.81,15.63-15.52,15.71-8.99,.12-16-6.82-16-15.83,.04-8.72,6.85-15.63,15.51-15.71h0Z"/><path class="cls-1" d="M386.78,181.86c8.7-.08,15.72,6.7,15.88,15.38,.16,8.96-6.85,16.11-15.8,16.07-8.7-.04-15.56-6.94-15.6-15.67,0-8.76,6.85-15.71,15.52-15.79h0Z"/><path class="cls-1" d="M374.97,157.84c-.04,8.68-6.93,15.59-15.56,15.63-8.91,.04-15.92-7.11-15.76-16.03,.16-8.64,7.21-15.43,15.88-15.34,8.62,.12,15.48,7.11,15.43,15.75h.01Z"/><path class="cls-1" d="M326.09,.04h-20.15c-3.39,2.87-5.56,7.11-5.6,11.91-.04,8.68,6.81,15.67,15.43,15.75,8.91,.12,16-7.03,15.88-15.95,0-4.72-2.18-8.88-5.56-11.71Z"/><path class="cls-1" d="M546.85,361.31c.08,8.52-7.09,15.71-15.6,15.71-8.54-.04-15.64-7.27-15.52-15.79,.12-8.32,7.01-15.22,15.31-15.38,8.5-.16,15.72,6.95,15.8,15.46h.01Z"/><path class="cls-1" d="M331.45,133.61c-8.54-.12-15.56-7.43-15.35-15.95,.2-8.56,7.58-15.55,16.08-15.22,8.3,.28,15.07,7.35,15.03,15.63,0,8.56-7.21,15.67-15.76,15.54h0Z"/><path class="cls-1" d="M658.76,434.84c-8.5,0-15.64-7.19-15.56-15.71,.08-8.56,7.33-15.63,15.84-15.46,8.3,.16,15.19,7.11,15.27,15.42,.08,8.52-7.01,15.75-15.55,15.75h0Z"/><path class="cls-1" d="M485.51,315.84c-.12,8.56-7.42,15.59-15.92,15.38-8.54-.2-15.52-7.59-15.19-16.11,.28-8.32,7.33-15.1,15.6-15.06,8.54,.04,15.64,7.27,15.52,15.79h0Z"/><path class="cls-1" d="M325.56,45.95c-.12,8.56-7.42,15.59-15.92,15.38-8.54-.2-15.52-7.59-15.19-16.11,.28-8.32,7.33-15.1,15.6-15.06,8.54,.04,15.68,7.27,15.52,15.79h0Z"/><path class="cls-1" d="M775.34,436.01c.04,8.6-7.05,15.75-15.64,15.71-8.58-.04-15.64-7.23-15.55-15.83,.12-8.36,6.97-15.26,15.31-15.42,8.62-.08,15.84,6.95,15.88,15.55h0Z"/><path class="cls-1" d="M606.81,407.01c.12,8.2-6.81,15.38-15.03,15.63-8.38,.24-15.84-7.11-15.76-15.55,.08-8.24,7.13-15.3,15.35-15.34,8.18,0,15.31,7.03,15.43,15.26h.01Z"/><path class="cls-1" d="M624.87,397.69c8.5-.16,15.8,7.07,15.76,15.63-.04,8.32-6.97,15.34-15.27,15.46-8.5,.16-15.8-7.07-15.76-15.63,0-8.28,6.97-15.34,15.27-15.46Z"/><path class="cls-1" d="M380.94,215.86c8.18,0,15.31,7.03,15.43,15.26,.12,8.44-7.3,15.79-15.68,15.63-8.22-.2-15.23-7.39-15.11-15.55,.08-8.28,7.17-15.34,15.35-15.34h0Z"/><path class="cls-1" d="M808.14,437.22c-2.02-5.77-7.46-10.26-13.9-10.62-8.22-.49-15.64,6.1-16.28,14.45-.68,8.44,6.13,16.15,14.71,16.64,6.97,.4,13.3-4.28,15.47-10.78v-9.69h0Z"/><path class="cls-1" d="M497.52,370.8c-8.26-.08-15.31-7.27-15.23-15.51,.08-8.28,7.25-15.34,15.48-15.26,8.26,.08,15.31,7.27,15.23,15.51-.08,8.24-7.25,15.34-15.48,15.26Z"/><path class="cls-1" d="M319.32,79.34c.08,8.24-6.93,15.38-15.19,15.47-8.22,.08-15.35-6.95-15.43-15.22-.08-8.24,6.93-15.38,15.19-15.46,8.22-.08,15.35,6.99,15.43,15.22h0Z"/><path class="cls-1" d="M268.46,.04c-.81,1.82-1.25,3.8-1.25,5.9-.04,8.28,6.97,15.34,15.27,15.26,8.3-.04,15.23-7.15,15.11-15.42-.04-2.02-.48-3.96-1.29-5.73h-27.84Z"/><path class="cls-1" d="M353.53,176.17c8.26,.12,15.27,7.39,15.15,15.59-.12,8.28-7.37,15.3-15.55,15.18-8.26-.12-15.27-7.39-15.15-15.59,.12-8.28,7.33-15.34,15.55-15.18h0Z"/><path class="cls-1" d="M340.92,151.94c-.12,8.32-7.33,15.3-15.55,15.1-8.3-.24-15.23-7.55-14.91-15.75,.32-8.12,7.21-14.82,15.27-14.78,8.22,0,15.31,7.15,15.19,15.42h0Z"/><path class="cls-1" d="M423.97,270.94c.08,8.24-6.97,15.42-15.23,15.5-8.22,.08-15.39-6.98-15.48-15.26-.08-8.24,6.97-15.42,15.23-15.5,8.22-.08,15.39,6.98,15.47,15.26h.01Z"/><path class="cls-1" d="M436.19,294.36c8.26-.08,15.39,7.03,15.35,15.3-.04,8.32-7.17,15.38-15.43,15.22-8.06-.12-14.87-6.9-15.07-15.02-.16-8.24,6.85-15.46,15.15-15.51h0Z"/><path class="cls-1" d="M574.13,401.12c.04,8.28-6.97,15.34-15.27,15.26-8.3-.04-15.23-7.15-15.11-15.43,.16-8.12,6.89-14.82,14.95-14.98,8.3-.12,15.39,6.82,15.43,15.14h0Z"/><path class="cls-1" d="M347.25,240.01c-8.42-.04-14.75-6.5-14.67-14.98,.08-8.4,6.65-14.7,15.07-14.54,8.14,.16,14.31,6.46,14.35,14.66,.08,8.48-6.33,14.9-14.75,14.86h0Z"/><path class="cls-1" d="M463.75,364.33c-8.3-.08-14.75-6.66-14.75-14.98s6.89-15.18,15.39-14.9c8.26,.24,14.63,6.99,14.43,15.26-.12,8.28-6.77,14.7-15.07,14.62Z"/><path class="cls-1" d="M389.68,264.84c.08,8.44-6.29,14.94-14.71,14.94s-14.83-6.42-14.75-14.86c.04-8.2,6.25-14.5,14.39-14.66,8.46-.12,14.99,6.18,15.07,14.58h0Z"/><path class="cls-1" d="M291.15,40.02c-.12,8.36-6.65,14.66-15.07,14.54-8.34-.12-14.63-6.66-14.51-15.1,.12-8.36,6.65-14.66,15.07-14.54,8.34,.12,14.63,6.66,14.51,15.1Z"/><path class="cls-1" d="M312.83,113.5c-.12,8.36-6.73,14.74-15.11,14.62-8.34-.12-14.71-6.74-14.59-15.14,.12-8.36,6.73-14.74,15.11-14.62,8.38,.12,14.75,6.74,14.59,15.14Z"/><path class="cls-1" d="M787.19,490.64c-8.38-.12-14.67-6.66-14.47-15.14,.16-8.4,6.81-14.62,15.27-14.38,8.14,.24,14.22,6.62,14.18,14.86-.08,8.44-6.57,14.78-14.99,14.66h0Z"/><path class="cls-1" d="M768.61,469.96c-.04,8.4-6.57,14.82-14.95,14.78s-14.79-6.58-14.75-14.98c.04-8.4,6.57-14.82,14.95-14.78,8.34,.04,14.79,6.58,14.75,14.98Z"/><path class="cls-1" d="M719.93,478.73c-8.34-.08-14.79-6.62-14.71-15.02,.08-8.36,6.61-14.82,14.99-14.74,8.34,.08,14.79,6.62,14.71,15.02-.08,8.36-6.61,14.78-14.99,14.74Z"/><path class="cls-1" d="M686.4,442.95c8.38,0,14.87,6.46,14.87,14.86s-6.45,14.9-14.83,14.9-14.87-6.46-14.87-14.86c-.04-8.4,6.45-14.9,14.83-14.9Z"/><path class="cls-1" d="M667.5,451.67c.08,8.4-6.29,14.86-14.67,14.94-8.38,.08-14.83-6.3-14.91-14.7-.08-8.4,6.29-14.86,14.67-14.94,8.42-.04,14.87,6.3,14.91,14.7Z"/><path class="cls-1" d="M525.41,410.04c-8.38,.08-14.91-6.38-14.99-14.74-.08-8.4,6.37-14.94,14.71-15.02,8.38-.08,14.91,6.38,14.99,14.74,.08,8.4-6.37,14.94-14.71,15.02Z"/><path class="cls-1" d="M319.8,200.16c-8.38,.08-14.79-6.26-14.79-14.66s6.37-14.74,14.75-14.7c8.14,.04,14.39,6.22,14.51,14.33,.16,8.48-6.12,14.98-14.47,15.02h0Z"/><path class="cls-1" d="M402.82,290.12c8.34,.08,14.59,6.58,14.43,15.02-.16,8.32-6.73,14.54-15.15,14.29-8.06-.2-14.14-6.54-14.14-14.74,.08-8.32,6.49-14.66,14.87-14.58h0Z"/><path class="cls-1" d="M430.38,328.8c8.1,.04,14.39,6.38,14.43,14.5,0,8.36-6.57,14.78-14.91,14.58-8.06-.2-14.23-6.66-14.11-14.82,.08-8.04,6.49-14.29,14.59-14.25h0Z"/><path class="cls-1" d="M808.14,475.13c-.97,1.86-1.57,4-1.61,6.26-.08,2.66,.56,5.09,1.61,7.23v-13.49h0Z"/><path class="cls-1" d="M284.9,73.73c-.12,8.32-6.73,14.58-15.11,14.29-8.02-.24-14.1-6.7-13.98-14.86,.12-8.32,6.73-14.58,15.11-14.29,8.02,.24,14.11,6.7,13.98,14.86h0Z"/><path class="cls-1" d="M601.17,440.81c.08,8.36-6.37,14.78-14.71,14.7-8.1-.08-14.35-6.34-14.39-14.46-.08-8.36,6.37-14.78,14.71-14.7,8.06,.08,14.31,6.34,14.39,14.46Z"/><path class="cls-1" d="M291.79,131.19c8.1-.08,14.55,6.14,14.71,14.21,.16,8.4-6.29,14.94-14.63,14.9-8.1-.04-14.39-6.38-14.43-14.5,0-8.12,6.25-14.5,14.35-14.62h0Z"/><path class="cls-1" d="M506.14,389.01c.08,8.36-6.37,14.78-14.71,14.7-8.1-.08-14.35-6.34-14.39-14.45-.08-8.36,6.37-14.78,14.71-14.7,8.1,.08,14.35,6.34,14.39,14.45Z"/><path class="cls-1" d="M633.73,447.47c-.24,8.36-6.85,14.5-15.31,14.21-8.3-.28-14.39-6.99-14.02-15.51,.36-8.07,6.81-14.05,14.99-13.89,8.38,.12,14.59,6.7,14.35,15.18h0Z"/><path class="cls-1" d="M234.29,.04c.04,7.87,6.41,14.33,14.31,14.37,7.98,.04,14.47-6.38,14.55-14.33V.04h-28.86Z"/><path class="cls-1" d="M567.4,434.8c.08,8.08-6.29,14.58-14.31,14.62-8.06,.08-14.55-6.3-14.59-14.33-.08-8.08,6.29-14.58,14.31-14.62,8.02-.08,14.51,6.3,14.59,14.33Z"/><path class="cls-1" d="M258.19,33.68c0,7.83-6.81,14.54-14.59,14.33-7.62-.16-14.02-6.7-14.02-14.33s6.81-14.54,14.59-14.33c7.62,.2,14.03,6.74,14.03,14.33h-.01Z"/><path class="cls-1" d="M327.98,219.74c-.28,7.91-7.29,14.33-15.11,13.89-7.66-.44-13.86-7.23-13.58-14.82,.28-7.91,7.29-14.33,15.11-13.89,7.66,.44,13.86,7.19,13.58,14.82h0Z"/><path class="cls-1" d="M472.29,383.43c-.16,7.87-6.97,14.38-14.83,14.09-7.86-.24-14.27-7.15-13.9-15.02,.32-7.67,6.89-13.89,14.55-13.81,7.86,.12,14.39,6.86,14.19,14.74h-.01Z"/><path class="cls-1" d="M341.08,273.4c-7.86-.12-14.35-6.9-14.14-14.78,.2-7.87,7.05-14.33,14.91-14.01,7.66,.28,13.9,6.82,13.86,14.5-.08,7.87-6.77,14.46-14.63,14.29h0Z"/><path class="cls-1" d="M680.6,505.9c-7.82,.12-14.55-6.62-14.51-14.46,.08-7.63,6.53-14.09,14.15-14.21,7.82-.12,14.55,6.62,14.51,14.46-.12,7.59-6.57,14.09-14.15,14.21Z"/><path class="cls-1" d="M383.31,299.08c-.16,7.92-7.09,14.42-14.95,14.09-7.66-.36-13.94-7.02-13.74-14.66,.16-7.91,7.09-14.41,14.95-14.09,7.62,.32,13.9,6.98,13.74,14.66Z"/><path class="cls-1" d="M728.39,497.58c0,7.83-6.81,14.54-14.63,14.33-7.62-.2-14.02-6.74-13.98-14.37,0-7.83,6.81-14.54,14.63-14.33,7.58,.24,13.98,6.78,13.98,14.38h0Z"/><path class="cls-1" d="M251.17,106.88c.16-7.87,6.97-14.37,14.83-14.09,7.86,.24,14.26,7.15,13.9,15.02-.32,7.67-6.89,13.89-14.55,13.81-7.86-.12-14.39-6.86-14.18-14.74h0Z"/><path class="cls-1" d="M533.59,428.78c.08,7.83-6.69,14.58-14.51,14.46-7.62-.12-14.06-6.62-14.1-14.21-.08-7.83,6.69-14.58,14.51-14.46,7.58,.12,14.02,6.62,14.11,14.21h0Z"/><path class="cls-1" d="M301.47,179.56c-.04,7.63-6.57,14.17-14.19,14.25-7.82,.04-14.59-6.82-14.35-14.66,.24-7.67,6.89-14.05,14.47-13.93,7.62,.08,14.11,6.7,14.07,14.33h0Z"/><path class="cls-1" d="M762,503.64c-.04,7.63-6.53,14.17-14.14,14.25-7.82,.08-14.59-6.82-14.39-14.62,.2-7.67,6.85-14.09,14.47-13.97s14.1,6.7,14.06,14.33h0Z"/><path class="cls-1" d="M646.63,471.22c7.62-.04,14.23,6.42,14.35,14.05,.16,7.83-6.65,14.66-14.51,14.54-7.62-.12-14.1-6.74-14.06-14.38,.08-7.59,6.61-14.13,14.22-14.21h0Z"/><path class="cls-1" d="M396.69,351.62c-7.62,.04-14.18-6.42-14.35-14.05-.16-7.83,6.65-14.66,14.51-14.54,7.62,.12,14.1,6.74,14.06,14.38-.08,7.63-6.61,14.17-14.23,14.21h.01Z"/><path class="cls-1" d="M594.56,473.19c.2,7.71-6.29,14.29-13.98,14.29s-13.78-6.18-13.98-13.73c-.2-7.71,6.29-14.29,13.98-14.29s13.82,6.18,13.98,13.73Z"/><path class="cls-1" d="M628.45,479.45c.04,7.63-6.49,14.21-14.1,14.25-7.62,.04-14.19-6.5-14.23-14.13s6.49-14.21,14.11-14.25c7.58-.08,14.18,6.46,14.22,14.13Z"/><path class="cls-1" d="M767.24,509.17c.32-7.67,7.13-14.05,14.63-13.73,7.66,.32,14.02,7.11,13.7,14.66-.32,7.67-7.13,14.05-14.63,13.73-7.66-.32-14.02-7.11-13.7-14.66Z"/><path class="cls-1" d="M808.14,503.56c-4.11,2.46-7.01,6.9-7.09,11.87-.08,5.13,2.86,9.73,7.09,12.27v-24.15h0Z"/><path class="cls-1" d="M259.51,154.93c-7.74,0-14.18-6.62-13.98-14.33,.2-7.51,6.53-13.69,14.02-13.69s14.18,6.62,13.98,14.33c-.24,7.55-6.57,13.73-14.02,13.69h0Z"/><path class="cls-1" d="M251.86,67.43c0,7.75-6.61,14.21-14.27,14.01-7.5-.2-13.7-6.5-13.7-14.01s6.61-14.21,14.27-14.01c7.54,.2,13.7,6.5,13.7,14.01Z"/><path class="cls-1" d="M438.24,377.09c0,7.75-6.61,14.21-14.27,14.01-7.49-.2-13.7-6.5-13.7-14.01s6.61-14.21,14.27-14.01c7.54,.16,13.7,6.5,13.7,14.01Z"/><path class="cls-1" d="M485.31,408.87c7.7-.2,14.27,6.3,14.27,14.05s-6.21,13.81-13.7,14.01c-7.7,.2-14.27-6.3-14.27-14.05s6.21-13.85,13.7-14.01Z"/><path class="cls-1" d="M295.02,253.17c-.12-7.59,5.88-13.85,13.46-14.05,7.82-.2,14.22,6.1,14.14,13.93-.08,7.59-6.17,13.69-13.78,13.73-7.58,.08-13.7-5.98-13.82-13.61Z"/><path class="cls-1" d="M547.05,482.32c-7.7,.04-13.7-5.82-13.74-13.53s5.8-13.73,13.5-13.77c7.7-.04,13.7,5.82,13.74,13.53s-5.8,13.69-13.5,13.77Z"/><path class="cls-1" d="M350.19,292.7c0,7.71-5.96,13.73-13.66,13.77-7.7,0-13.7-5.98-13.74-13.69,0-7.71,5.96-13.73,13.66-13.77,7.74,0,13.74,5.98,13.74,13.69Z"/><path class="cls-1" d="M204.02,.04c2.22,4.56,6.81,7.59,12.33,7.55,5.44-.04,9.91-3.07,12.09-7.55,0,0-24.42,0-24.42,0Z"/><path class="cls-1" d="M294.78,213.16c.04,7.71-5.84,13.69-13.54,13.73s-13.66-5.86-13.7-13.57c-.04-7.71,5.84-13.69,13.54-13.73,7.74-.04,13.7,5.85,13.7,13.57Z"/><path class="cls-1" d="M376.58,331.59c-.12,7.71-6.21,13.53-13.9,13.37-7.7-.12-13.5-6.22-13.34-13.93,.12-7.71,6.21-13.53,13.9-13.36,7.66,.12,13.46,6.22,13.34,13.93h0Z"/><path class="cls-1" d="M245.37,101.19c0,7.75-5.92,13.61-13.66,13.53-7.7-.08-13.5-6.06-13.34-13.85,.12-7.47,5.88-13.16,13.34-13.24,7.74-.04,13.66,5.81,13.66,13.57h0Z"/><path class="cls-1" d="M452.1,430.39c-7.74,.08-13.66-5.77-13.66-13.53s5.88-13.61,13.62-13.57c7.5,.04,13.22,5.73,13.38,13.2,.12,7.79-5.64,13.81-13.34,13.89h0Z"/><path class="cls-1" d="M377.23,370.19c.4-7.39,6.41-12.8,13.98-12.56,7.62,.28,13.22,6.5,12.81,14.29-.4,7.63-6.73,13.08-14.55,12.52-7.38-.53-12.65-6.7-12.25-14.25h0Z"/><path class="cls-1" d="M654,519.47c-.08,7.43-6.04,13.2-13.5,13.12-7.41-.08-13.18-6.06-13.1-13.53,.08-7.43,6.04-13.2,13.5-13.12,7.41,.08,13.22,6.06,13.1,13.53Z"/><path class="cls-1" d="M674.35,538.65c-7.46,0-13.26-5.77-13.3-13.24-.08-7.67,5.96-13.65,13.66-13.49,7.38,.16,13.1,6.06,13.02,13.53-.08,7.47-5.92,13.2-13.38,13.2h0Z"/><path class="cls-1" d="M721.38,531.22c.04,7.47-5.68,13.32-13.1,13.45-7.66,.12-13.66-5.9-13.58-13.57,.08-7.43,5.96-13.16,13.38-13.12,7.46,0,13.26,5.82,13.3,13.24Z"/><path class="cls-1" d="M755.03,537.07c.12,7.47-5.64,13.45-13.02,13.57-7.46,.12-13.42-5.65-13.54-13.04-.12-7.47,5.64-13.45,13.02-13.57,7.41-.12,13.42,5.61,13.54,13.04Z"/><path class="cls-1" d="M266.93,173.38c.04,7.75-5.88,13.61-13.62,13.49-7.46-.08-13.14-5.86-13.18-13.37-.04-7.75,5.88-13.61,13.62-13.49,7.46,.12,13.14,5.9,13.18,13.37Z"/><path class="cls-1" d="M210.51,14.29c7.46,.12,13.14,6.02,13.1,13.53-.08,7.71-6.17,13.53-13.94,13.24-7.42-.28-12.98-6.3-12.77-13.81,.16-7.47,6.09-13.08,13.62-12.96h0Z"/><path class="cls-1" d="M513.2,449.25c7.5-.04,13.34,5.69,13.42,13.16,.08,7.79-5.84,13.73-13.62,13.61-7.46-.12-13.18-5.98-13.14-13.49,.08-7.47,5.84-13.24,13.34-13.28Z"/><path class="cls-1" d="M316.01,286.85c-.08,7.31-6.17,13.28-13.46,13.12-7.29-.16-13.18-6.34-12.94-13.65,.24-7.07,6.08-12.8,13.18-12.8,7.29-.04,13.3,6.02,13.22,13.33Z"/><path class="cls-1" d="M204.39,48.17c7.29,.12,13.22,6.26,13.02,13.57s-6.41,13.16-13.7,12.88c-7.05-.24-12.73-6.18-12.73-13.28,.04-7.27,6.12-13.24,13.42-13.16h-.01Z"/><path class="cls-1" d="M239.04,135.11c-.12,7.31-6.25,13.24-13.54,13.04s-13.14-6.42-12.85-13.73c.28-7.07,6.17-12.76,13.26-12.76,7.29,.04,13.26,6.1,13.14,13.45h0Z"/><path class="cls-1" d="M418.17,397.61c7.29-.04,13.34,5.98,13.26,13.32-.04,7.31-6.13,13.28-13.42,13.16-7.05-.12-12.86-5.93-12.98-13-.12-7.35,5.84-13.45,13.14-13.49h0Z"/><path class="cls-1" d="M595,512.77c.24-7.35,6.49-13.08,13.86-12.76,7.33,.32,13.02,6.66,12.57,14.01-.4,7.11-6.41,12.64-13.54,12.48-7.34-.16-13.14-6.34-12.9-13.73h.01Z"/><path class="cls-1" d="M788.64,543.41c0,7.39-6.04,13.33-13.42,13.2-7.38-.08-13.22-6.18-13.06-13.57,.16-7.15,5.96-12.84,13.1-12.92,7.41-.08,13.38,5.85,13.38,13.28h0Z"/><path class="cls-1" d="M358.05,351.94c6.97-.04,13.02,5.85,13.18,12.88,.16,7.19-6.12,13.49-13.3,13.37-7.01-.12-12.94-6.18-12.9-13.2,.04-7.03,6-13,13.02-13.04h0Z"/><path class="cls-1" d="M574.85,494.07c7.05,.16,12.94,6.22,12.86,13.29-.08,7.31-6.45,13.36-13.7,13.04-7.05-.32-12.82-6.54-12.57-13.57,.24-7.11,6.41-12.92,13.42-12.76h0Z"/><path class="cls-1" d="M261.97,246.47c.28-7.31,6.69-13.16,13.94-12.72,7.05,.44,12.65,6.62,12.41,13.65-.28,7.31-6.69,13.16-13.94,12.72-7.05-.4-12.65-6.58-12.41-13.65Z"/><path class="cls-1" d="M479.43,469.8c-7.29-.08-13.3-6.34-13.02-13.65,.24-7.07,6.25-12.84,13.3-12.76,7.29,.08,13.3,6.34,13.02,13.65-.2,7.07-6.21,12.84-13.3,12.76Z"/><path class="cls-1" d="M234.41,207.22c0-7.03,5.92-13.04,12.94-13.12,7.21-.12,13.46,6.18,13.26,13.4-.16,7.03-6.25,12.92-13.22,12.84-7.05-.12-12.98-6.1-12.98-13.12h0Z"/><path class="cls-1" d="M808.14,536.31c-6.85,.53-12.41,6.42-12.25,13.41,.16,6.78,5.6,12.32,12.25,12.8v-26.21h0Z"/><path class="cls-1" d="M343.62,326.7c-.12,7.31-6.41,13.29-13.66,13-7.05-.28-12.77-6.34-12.65-13.4,.12-7.31,6.41-13.29,13.66-13,7.09,.28,12.77,6.34,12.65,13.4Z"/><path class="cls-1" d="M540.92,488.22c6.97,0,13.06,6.18,12.94,13.12-.08,6.98-6.33,13-13.26,12.84-6.77-.2-12.53-6.06-12.65-12.8-.08-6.99,6-13.16,12.98-13.16h0Z"/><path class="cls-1" d="M445.94,463.5c-7.01,0-13.06-6.18-12.89-13.16,.16-6.82,6.04-12.6,12.85-12.6s13.06,6.18,12.9,13.16c-.2,6.78-6.09,12.56-12.86,12.6Z"/><path class="cls-1" d="M198.22,108.05c-7.01,.04-13.1-6.14-12.94-13.16,.16-6.82,6.04-12.6,12.82-12.64,7.01-.04,13.1,6.14,12.94,13.16-.12,6.82-6.01,12.6-12.82,12.64Z"/><path class="cls-1" d="M232.64,167.69c-.16,7.07-6.37,12.92-13.34,12.56-6.81-.36-12.41-6.3-12.25-13.04,.16-7.07,6.37-12.92,13.34-12.56,6.81,.32,12.41,6.26,12.25,13.04Z"/><path class="cls-1" d="M397.38,404.79c0,7.02-6.12,13-13.1,12.8-6.81-.2-12.49-6.02-12.49-12.84s6.13-13,13.1-12.8c6.81,.2,12.49,6.06,12.49,12.84Z"/><path class="cls-1" d="M519.85,495c.08,6.94-5.52,12.68-12.45,12.8-6.93,.08-12.65-5.53-12.77-12.48-.08-6.95,5.52-12.68,12.45-12.8,6.97-.08,12.69,5.53,12.78,12.48h-.01Z"/><path class="cls-1" d="M336.81,358.84c.08,6.95-5.04,12.32-11.89,12.52-7.17,.24-12.73-5.09-12.82-12.24-.08-7.19,5.32-12.6,12.49-12.52,6.89,.12,12.13,5.37,12.21,12.24h.01Z"/><path class="cls-1" d="M253.75,241.1c-.08,7.11-5.6,12.36-12.74,12.15-6.85-.2-11.89-5.53-11.85-12.48,.08-7.11,5.6-12.36,12.74-12.15,6.89,.2,11.93,5.53,11.85,12.48Z"/><path class="cls-1" d="M182.7,55.52c-.08,6.9-5.28,12.07-12.17,12.07s-12.41-5.45-12.21-12.64c.2-6.82,5.56-11.91,12.45-11.79,6.89,.16,12.01,5.45,11.93,12.36h0Z"/><path class="cls-1" d="M296.83,308.01c7.09,.04,12.49,5.53,12.37,12.64-.08,7.07-5.68,12.44-12.77,12.24-6.81-.16-12.01-5.49-12.09-12.32,0-7.11,5.4-12.56,12.49-12.56Z"/><path class="cls-1" d="M412.21,456.8c-6.89-.04-12.13-5.25-12.17-12.15-.04-7.19,5.36-12.52,12.57-12.36,6.89,.16,11.97,5.49,11.89,12.44-.12,6.94-5.36,12.11-12.29,12.07h0Z"/><path class="cls-1" d="M176.82,34.2c-7.01,.16-12.61-5.25-12.77-12.28-.16-7.03,5.24-12.64,12.25-12.8s12.61,5.25,12.78,12.28c.12,6.99-5.28,12.64-12.25,12.8h0Z"/><path class="cls-1" d="M808.14,572.08c-1.49-.69-3.14-1.05-4.88-1.09-6.81-.08-12.17,5.13-12.29,11.95-.08,6.82,5.12,12.2,11.93,12.32,1.89,.04,3.67-.4,5.24-1.13v-22.05Z"/><path class="cls-1" d="M769.18,564.85c6.93-.08,12.25,5.01,12.45,11.91,.16,7.23-5.16,12.64-12.33,12.6-6.89-.04-12.09-5.29-12.13-12.19-.04-6.95,5.12-12.24,12.01-12.32h0Z"/><path class="cls-1" d="M735.97,583.39c-7.17,.12-12.57-5.17-12.57-12.36s5.16-12.15,12.01-12.28c7.17-.12,12.57,5.17,12.57,12.36s-5.12,12.15-12.01,12.27h0Z"/><path class="cls-1" d="M214.02,213.32c-6.89,.08-12.21-5.09-12.33-11.99-.08-6.9,5.08-12.24,11.97-12.36,6.89-.08,12.21,5.09,12.33,11.99,.08,6.95-5.12,12.27-11.97,12.35h0Z"/><path class="cls-1" d="M702.12,577.41c-6.93,.04-12.25-5.09-12.41-11.99-.2-7.19,5.16-12.72,12.29-12.76,7.17-.04,12.53,5.41,12.41,12.6-.12,6.91-5.4,12.11-12.29,12.15Z"/><path class="cls-1" d="M680.72,558.76c.12,7.19-5.24,12.68-12.37,12.64-6.89,0-12.21-5.21-12.33-12.11-.12-7.19,5.24-12.68,12.37-12.64,6.93,.04,12.21,5.21,12.33,12.11Z"/><path class="cls-1" d="M635.79,565.3c-7.13-.04-12.37-5.53-12.17-12.72,.2-6.86,5.48-11.95,12.37-11.91,7.09,.04,12.37,5.53,12.17,12.72-.16,6.86-5.44,11.99-12.37,11.91Z"/><path class="cls-1" d="M473.62,502.51c-6.89,0-12.17-5.21-12.17-12.11s5.2-12.2,12.09-12.2c6.89-.04,12.17,5.21,12.17,12.11s-5.24,12.15-12.09,12.19h0Z"/><path class="cls-1" d="M614.43,546.76c.08,6.91-5,12.23-11.85,12.4-7.13,.16-12.57-5.17-12.53-12.32,.04-6.9,5.24-12.07,12.13-12.11,6.89,0,12.13,5.17,12.25,12.03h0Z"/><path class="cls-1" d="M281.56,280.99c-.16,7.07-5.76,12.4-12.86,12.15-7.05-.2-12.29-5.9-11.97-13.04,.28-6.82,5.68-11.91,12.53-11.87,7.05,.08,12.45,5.65,12.29,12.76h0Z"/><path class="cls-1" d="M351.92,386.62c6.89-.08,12.25,5.09,12.33,11.95,.08,6.9-5.08,12.27-11.93,12.36-6.89,.08-12.25-5.09-12.33-11.95-.12-6.9,5.04-12.27,11.93-12.36Z"/><path class="cls-1" d="M192.38,141.12c-6.93,.08-12.25-5.01-12.41-11.91-.16-7.23,5.16-12.64,12.33-12.6,6.89,.04,12.09,5.29,12.13,12.19,0,6.99-5.16,12.24-12.05,12.32Z"/><path class="cls-1" d="M546.85,535.22c-.16,6.42-5.68,11.79-12.09,11.71-6.65-.08-12.17-5.94-11.81-12.56,.32-6.42,6-11.63,12.37-11.39,6.45,.2,11.69,5.82,11.53,12.24Z"/><path class="cls-1" d="M568.73,528.88c6.77,.08,12.05,5.57,11.89,12.4-.16,6.78-5.72,11.99-12.53,11.75-6.53-.24-11.61-5.53-11.57-12.11,0-6.78,5.4-12.15,12.21-12.03h0Z"/><path class="cls-1" d="M198.1,162.72c-.04,6.34-5.52,11.83-11.85,11.87-6.57,.04-12.21-5.77-11.97-12.32,.24-6.38,5.84-11.71,12.17-11.55,6.33,.08,11.69,5.61,11.65,11.99h0Z"/><path class="cls-1" d="M263.06,326.34c-6.37-.04-11.85-5.61-11.81-11.99,.04-6.38,5.6-11.87,11.97-11.83s11.85,5.61,11.81,11.99c-.08,6.38-5.64,11.87-11.97,11.83Z"/><path class="cls-1" d="M176.46,89.03c.04,6.34-5.32,11.91-11.69,12.03-6.57,.16-12.29-5.57-12.17-12.15,.12-6.38,5.64-11.79,12.01-11.75,6.33,.04,11.77,5.53,11.85,11.87Z"/><path class="cls-1" d="M439.61,472.39c6.33-.16,11.93,5.17,12.21,11.51,.24,6.54-5.36,12.4-11.97,12.36-6.33,0-11.81-5.45-11.89-11.83-.08-6.34,5.28-11.87,11.65-12.03h0Z"/><path class="cls-1" d="M379.77,426.6c6.33,0,11.85,5.41,11.93,11.79,.08,6.58-5.64,12.28-12.21,12.11-6.37-.16-11.73-5.73-11.65-12.07,.08-6.38,5.56-11.83,11.93-11.83Z"/><path class="cls-1" d="M154.5,15.87c-.12,6.22-5.48,11.47-11.69,11.43-6.45-.04-11.85-5.77-11.53-12.15,.32-6.26,5.8-11.35,11.97-11.1,6.21,.2,11.36,5.65,11.24,11.83h0Z"/><path class="cls-1" d="M291.23,341.16c6.37,.28,11.73,6.18,11.36,12.48-.4,6.42-6.29,11.67-12.57,11.23-6.17-.48-11.24-6.02-11.08-12.11,.2-6.46,6.01-11.91,12.29-11.59h0Z"/><path class="cls-1" d="M318.39,381.13c6.21-.04,11.53,5.17,11.69,11.43,.12,6.42-5.44,11.99-11.85,11.87-6.21-.16-11.45-5.49-11.36-11.71,0-6.26,5.28-11.55,11.52-11.59Z"/><path class="cls-1" d="M208.05,223.29c6.21,.16,11.4,5.53,11.36,11.75-.08,6.46-5.76,11.87-12.17,11.51-6.25-.36-11.32-5.86-11.04-12.03,.24-6.22,5.72-11.39,11.85-11.23h0Z"/><path class="cls-1" d="M235.42,262.82c6.33-.04,11.93,5.61,11.85,11.95-.08,6.38-5.76,11.91-12.09,11.75-6.12-.16-11.44-5.53-11.57-11.67-.08-6.34,5.48-11.99,11.81-12.03h0Z"/><path class="cls-1" d="M512.91,528.72c.12,6.34-5.48,11.99-11.81,11.87-6.13-.08-11.45-5.41-11.57-11.55-.12-6.34,5.48-11.99,11.81-11.87,6.13,.08,11.44,5.41,11.57,11.55Z"/><path class="cls-1" d="M417.53,478.08c.12,6.46-4.8,11.47-11.24,11.51-6.45,.04-11.4-4.93-11.36-11.39,.04-6.22,4.71-11.02,10.92-11.23,6.49-.16,11.57,4.68,11.69,11.1h-.01Z"/><path class="cls-1" d="M774.5,610.89c-.04,6.46-5,11.27-11.49,11.1-6.21-.16-10.8-4.97-10.8-11.18,.04-6.46,5-11.27,11.48-11.1,6.21,.16,10.84,4.93,10.8,11.18h.01Z"/><path class="cls-1" d="M345.96,421.27c6.29-.08,11.12,4.56,11.32,10.78,.24,6.5-4.59,11.59-11.08,11.67s-11.45-4.89-11.32-11.39c.12-6.26,4.84-10.98,11.08-11.06Z"/><path class="cls-1" d="M596.25,591.79c-6.25,0-11-4.64-11.08-10.9-.08-6.5,4.84-11.39,11.32-11.27,6.21,.12,10.84,4.93,10.76,11.22-.04,6.26-4.76,10.94-11,10.94h0Z"/><path class="cls-1" d="M641.11,586.7c.04,6.5-4.96,11.39-11.48,11.27-6.25-.12-10.92-4.93-10.96-11.18-.04-6.5,4.96-11.39,11.44-11.27,6.29,.12,10.96,4.93,11,11.18Z"/><path class="cls-1" d="M180.41,206.29c-6.49,.12-11.4-4.72-11.4-11.18,.04-6.26,4.67-10.98,10.88-11.1,6.49-.12,11.4,4.72,11.4,11.18-.04,6.26-4.67,10.98-10.88,11.1h0Z"/><path class="cls-1" d="M148.01,49.62c-.12,6.46-5.2,11.14-11.69,10.9-6.17-.28-10.68-5.13-10.56-11.43,.12-6.46,5.2-11.14,11.69-10.9,6.17,.28,10.68,5.17,10.56,11.43Z"/><path class="cls-1" d="M662.34,604.06c-6.45,0-11.36-5.01-11.28-11.47,.08-6.46,5.16-11.31,11.61-11.15,6.21,.16,10.88,4.97,10.96,11.18,.08,6.46-4.84,11.47-11.28,11.43h0Z"/><path class="cls-1" d="M478.7,522.98c-.04,6.46-5.04,11.27-11.52,11.06-6.21-.2-10.8-5.01-10.72-11.27,.04-6.46,5.04-11.27,11.52-11.06,6.17,.2,10.76,5.01,10.72,11.26h0Z"/><path class="cls-1" d="M695.99,610.08c-6.45-.04-11.36-5.05-11.24-11.51s5.16-11.31,11.65-11.1c6.21,.16,10.88,4.97,10.96,11.18,0,6.5-4.92,11.47-11.36,11.43h-.01Z"/><path class="cls-1" d="M158.28,111.57c6.45-.12,11.44,4.81,11.49,11.27,.04,6.46-4.92,11.43-11.37,11.39-6.21-.04-11-4.72-11.2-10.94-.16-6.5,4.67-11.63,11.08-11.71h0Z"/><path class="cls-1" d="M729.76,616.05c-6.49,.04-11.36-4.97-11.24-11.47,.12-6.26,4.92-10.94,11.16-10.98,6.49-.04,11.36,4.97,11.24,11.47-.16,6.26-4.92,10.94-11.16,10.98Z"/><path class="cls-1" d="M808.02,615.49c.08,6.3-4.59,11.1-10.84,11.18-6.29,.08-11.08-4.6-11.16-10.86-.08-6.3,4.59-11.1,10.84-11.18,6.29-.08,11.08,4.6,11.16,10.86Z"/><path class="cls-1" d="M212.65,268.48c.08,5.86-4.55,10.78-10.36,11.02-6.08,.24-11.2-4.6-11.28-10.66-.08-6.1,4.88-11.1,10.96-11.02,5.8,.04,10.56,4.81,10.68,10.66Z"/><path class="cls-1" d="M267.98,348.18c0,6.14-4.92,10.94-11,10.86-6.09-.08-10.88-5.05-10.72-11.18,.16-5.86,4.88-10.5,10.72-10.58,6.12-.08,11,4.76,11,10.9Z"/><path class="cls-1" d="M384.6,472.19c.04,5.85-4.59,10.74-10.44,10.94-6.08,.2-11.16-4.68-11.24-10.74-.04-6.1,4.96-11.06,11.04-10.94,5.84,.08,10.56,4.89,10.64,10.74h0Z"/><path class="cls-1" d="M528.95,557.87c5.84,.04,10.68,4.89,10.72,10.74,.04,6.06-5.12,11.1-11.16,10.9-5.84-.2-10.56-5.17-10.44-11.02,.12-5.85,5.04-10.66,10.88-10.62Z"/><path class="cls-1" d="M562.8,563.76c6.17,.12,10.84,5.13,10.64,11.35-.2,6.14-5.28,10.78-11.48,10.5-5.88-.28-10.4-5.09-10.32-11.06,.08-6.18,5-10.9,11.16-10.78h0Z"/><path class="cls-1" d="M240.33,308.29c.08,6.14-4.76,11.02-10.88,11.02s-10.92-4.93-10.84-11.06c.08-5.85,4.72-10.58,10.6-10.7,6.09-.16,11.04,4.6,11.12,10.74h0Z"/><path class="cls-1" d="M163.32,156.83c-.12,6.1-5.28,10.9-11.36,10.62-5.8-.28-10.44-5.25-10.28-11.1,.12-6.1,5.28-10.9,11.36-10.62,5.8,.28,10.4,5.25,10.28,11.1Z"/><path class="cls-1" d="M131.32,72.28c5.8,.24,10.52,5.33,10.32,11.14-.2,6.06-5.52,10.9-11.57,10.46-5.8-.44-10.36-5.61-10.03-11.43,.36-5.81,5.48-10.42,11.28-10.18h0Z"/><path class="cls-1" d="M284.7,397.57c-6.08-.04-10.96-5.13-10.76-11.23,.2-5.85,5.04-10.54,10.88-10.5,6.08,.04,10.96,5.13,10.76,11.23-.16,5.86-5.04,10.54-10.88,10.5Z"/><path class="cls-1" d="M444.69,517.33c-.24,5.82-5.32,10.54-11.12,10.34-6.04-.2-10.88-5.53-10.44-11.59,.44-5.81,5.6-10.38,11.4-10.05,5.8,.36,10.4,5.49,10.15,11.31h.01Z"/><path class="cls-1" d="M184.8,229.03c-.08,5.77-5.2,10.7-10.92,10.54-5.76-.16-10.64-5.41-10.4-11.1,.24-5.53,5.12-10.22,10.64-10.26,5.76,0,10.76,5.05,10.68,10.82h0Z"/><path class="cls-1" d="M312.63,437.18c-5.72,.12-10.8-4.89-10.84-10.62-.04-5.77,5.04-10.78,10.76-10.7,5.52,.08,10.32,4.8,10.52,10.34,.24,5.69-4.67,10.86-10.44,10.98Z"/><path class="cls-1" d="M505.74,562.75c-.08,5.69-5.28,10.7-10.92,10.42-5.48-.24-10.2-5.21-10.11-10.66,.08-5.69,5.28-10.7,10.92-10.42,5.48,.24,10.15,5.21,10.12,10.66h-.01Z"/><path class="cls-1" d="M113.27,.04h-8.06c-3.59,1.57-6.25,5.17-6.41,9.21-.24,5.69,4.8,10.86,10.52,10.82,5.52-.04,10.32-4.85,10.36-10.38,0-4.2-2.7-7.99-6.41-9.65Z"/><path class="cls-1" d="M124.55,106.6c5.68-.16,10.44,4.4,10.48,10.1,.08,5.69-4.55,10.38-10.24,10.38s-9.95-4.32-10.2-9.81c-.2-5.65,4.27-10.5,9.95-10.66h.01Z"/><path class="cls-1" d="M411.64,512.16c-.04,5.69-4.8,10.26-10.48,10.14-5.68-.16-10.2-4.97-9.95-10.62,.2-5.45,4.71-9.81,10.16-9.81,5.68-.08,10.32,4.56,10.28,10.3h0Z"/><path class="cls-1" d="M330,466.45c-.12-5.53,4.07-10.05,9.59-10.3,5.76-.28,10.48,4.12,10.56,9.89,.12,5.77-4.39,10.34-10.2,10.3-5.52-.04-9.83-4.36-9.95-9.89h0Z"/><path class="cls-1" d="M461.53,546.68c5.6,0,9.83,4.2,9.91,9.77,.08,5.86-4.35,10.22-10.2,10.05-5.56-.16-9.67-4.48-9.59-10.09,.04-5.53,4.31-9.73,9.87-9.73h.01Z"/><path class="cls-1" d="M260.93,380.89c-.08,5.61-4.39,9.77-10.03,9.65-5.6-.08-9.75-4.4-9.63-10.05,.08-5.61,4.39-9.77,10.03-9.65,5.6,.12,9.75,4.4,9.63,10.05Z"/><path class="cls-1" d="M195.52,292.54c5.64-.12,9.95,4,10.07,9.61,.12,5.65-3.99,9.97-9.59,10.1-5.64,.12-9.95-4-10.07-9.61-.08-5.65,3.99-9.97,9.59-10.1h0Z"/><path class="cls-1" d="M156.55,189.09c0,5.77-4.59,10.26-10.36,10.13-5.52-.12-9.79-4.52-9.79-10.05s4.59-10.26,10.36-10.13c5.52,.12,9.79,4.52,9.79,10.05Z"/><path class="cls-1" d="M103.15,53.18c-5.6,0-9.83-4.24-9.79-9.89,0-5.61,4.23-9.85,9.87-9.81,5.6,0,9.83,4.24,9.79,9.89,0,5.65-4.23,9.85-9.87,9.81Z"/><path class="cls-1" d="M633.77,620.62c-.08,5.61-4.31,9.77-9.87,9.81-5.8,0-10.16-4.48-9.91-10.34,.2-5.57,4.55-9.65,10.2-9.49,5.56,.08,9.67,4.36,9.59,10.01h-.01Z"/><path class="cls-1" d="M667.54,626.75c-.12,5.77-4.75,10.01-10.56,9.73-5.48-.28-9.55-4.68-9.39-10.26,.12-5.77,4.76-10.01,10.56-9.73,5.48,.28,9.51,4.68,9.39,10.26Z"/><path class="cls-1" d="M223.41,352.06c-5.6,0-9.79-4.2-9.87-9.81-.04-5.86,4.39-10.22,10.24-10.05,5.56,.16,9.67,4.48,9.55,10.09-.08,5.65-4.31,9.81-9.91,9.77h-.01Z"/><path class="cls-1" d="M690.31,642.5c-5.8,.12-10.28-4.24-10.24-10.01,0-5.57,4.19-9.85,9.71-9.97,5.8-.12,10.28,4.24,10.24,10.01-.04,5.57-4.19,9.85-9.71,9.97Z"/><path class="cls-1" d="M733.67,637.45c-.08,5.77-4.59,10.1-10.4,9.85-5.52-.2-9.63-4.56-9.55-10.14,.08-5.78,4.59-10.1,10.4-9.85,5.52,.24,9.59,4.56,9.55,10.14Z"/><path class="cls-1" d="M767.2,643.11c.12,5.65-3.99,9.97-9.59,10.09-5.64,.12-9.95-4-10.07-9.61-.12-5.65,3.99-9.97,9.59-10.09,5.6-.12,9.95,4,10.08,9.61h-.01Z"/><path class="cls-1" d="M128.42,150.37c.12,5.17-4.07,9.61-9.27,9.81-5.4,.2-9.99-4.28-9.91-9.73,.08-5.21,4.35-9.49,9.55-9.49s9.51,4.24,9.63,9.41Z"/><path class="cls-1" d="M418.33,550.12c.28-5.13,4.92-9.37,9.99-9.09,5.12,.28,9.35,4.93,9.07,10.01-.28,5.13-4.92,9.37-9.99,9.08-5.12-.24-9.35-4.89-9.07-10.01h0Z"/><path class="cls-1" d="M566.15,608.18c.12,5.29-3.99,9.69-9.23,9.89-5.52,.2-10.03-4.2-9.99-9.73,.04-5.29,4.27-9.53,9.55-9.57,5.28-.04,9.55,4.12,9.67,9.41Z"/><path class="cls-1" d="M97.47,67.51c5.16,.16,9.43,4.72,9.27,9.85-.16,5.17-4.71,9.45-9.83,9.29-5.16-.16-9.43-4.72-9.27-9.85,.16-5.17,4.72-9.45,9.83-9.29Z"/><path class="cls-1" d="M278.46,410.73c5.56-.16,9.95,4.04,9.99,9.61,.08,5.61-4.15,9.89-9.71,9.89s-9.51-4-9.71-9.29c-.2-5.61,3.91-10.05,9.43-10.22h0Z"/><path class="cls-1" d="M590.45,624.25c-5.64,.12-9.95-4.04-10.04-9.69-.04-5.65,4.19-9.93,9.83-9.89,5.4,.04,9.55,4.04,9.71,9.41,.2,5.65-3.91,10.05-9.51,10.18h0Z"/><path class="cls-1" d="M168.08,252.93c5.56-.04,9.87,4.36,9.71,9.93-.12,5.33-4.31,9.41-9.63,9.45-5.56,.04-9.87-4.36-9.71-9.93,.12-5.33,4.31-9.41,9.63-9.45h0Z"/><path class="cls-1" d="M367.96,496.37c5.28,.12,9.43,4.44,9.39,9.73-.04,5.53-4.63,9.85-10.16,9.57-5.28-.28-9.31-4.72-9.11-10.01,.24-5.33,4.59-9.41,9.87-9.29h0Z"/><path class="cls-1" d="M791.26,659.1c-5.56,.12-9.95-4.2-9.91-9.77,.04-5.33,4.11-9.49,9.43-9.61,5.56-.12,9.95,4.2,9.91,9.77-.04,5.29-4.11,9.49-9.43,9.61Z"/><path class="cls-1" d="M296.91,459.95c.16-5.13,4.88-9.49,9.91-9.21,5.12,.28,9.39,5.05,9.03,10.1-.32,4.89-4.76,9-9.63,8.92-5.04-.12-9.47-4.72-9.31-9.81h0Z"/><path class="cls-1" d="M522.79,611.85c-5.08-.04-9.59-4.77-9.35-9.81,.2-4.89,4.64-9.12,9.47-9.09,5.08,.04,9.59,4.77,9.35,9.81-.2,4.89-4.64,9.12-9.47,9.09Z"/><path class="cls-1" d="M140.67,213.36c5.12,.12,9.51,4.81,9.27,9.89-.24,5.13-4.96,9.45-9.99,9.12-4.88-.28-9.03-4.72-8.99-9.57,.08-5.13,4.63-9.57,9.71-9.45h0Z"/><path class="cls-1" d="M489.26,605.39c-5.04,.04-9.11-4.08-9.07-9.13,.04-5.05,4.23-9.09,9.23-8.92,4.8,.12,8.66,4,8.79,8.8,.12,5.05-3.91,9.21-8.95,9.25Z"/><path class="cls-1" d="M404.27,544.75c-.08,5.13-4.15,8.96-9.31,8.72-4.88-.24-8.5-4.12-8.42-9.04,.08-5.17,4.15-8.96,9.31-8.72,4.88,.2,8.5,4.12,8.42,9.04Z"/><path class="cls-1" d="M67.37,.04c-.44,1.09-.73,2.34-.68,3.63,.04,5.17,4.11,9,9.27,8.76,4.88-.2,8.5-4.08,8.46-9,0-1.21-.24-2.38-.69-3.43h-16.36V.04Z"/><path class="cls-1" d="M217.6,365.79c5.12,.08,8.95,4.16,8.71,9.33-.24,4.89-4.11,8.52-9.03,8.44-5.16-.08-8.95-4.16-8.71-9.33,.24-4.89,4.11-8.52,9.03-8.44Z"/><path class="cls-1" d="M198.62,335.83c.16,5.17-3.71,9.17-8.86,9.17s-8.71-3.67-8.87-8.6c-.16-5.17,3.71-9.17,8.87-9.17s8.74,3.67,8.86,8.6Z"/><path class="cls-1" d="M333.95,508.77c-4.96-.08-8.62-3.76-8.62-8.76s3.99-9.01,9.19-8.8c4.96,.2,8.46,4.08,8.3,9.05-.12,5.01-3.87,8.6-8.86,8.52h-.01Z"/><path class="cls-1" d="M112.71,193.09c-4.96-.08-8.62-3.76-8.62-8.76s3.95-9,9.19-8.8c4.96,.2,8.46,4.04,8.34,9.04-.16,4.97-3.95,8.56-8.91,8.52Z"/><path class="cls-1" d="M91.27,119.6c-5,.04-8.7-3.59-8.83-8.56-.12-5.01,3.43-8.8,8.38-9,5.24-.2,9.19,3.63,9.15,8.84-.08,5.01-3.75,8.68-8.71,8.72h.01Z"/><path class="cls-1" d="M161.83,287.7c5.04-.12,8.79,3.43,8.95,8.4,.12,5.05-3.43,8.8-8.38,8.96-5.04,.12-8.79-3.43-8.95-8.4-.12-5.05,3.43-8.84,8.38-8.96Z"/><path class="cls-1" d="M253.75,414.69c-.12,5.01-3.87,8.56-8.9,8.44-5-.12-8.54-3.88-8.42-8.92,.12-5.01,3.87-8.56,8.91-8.44,5,.12,8.54,3.88,8.42,8.92h-.01Z"/><path class="cls-1" d="M726.14,671.37c-.16,4.84-4.19,8.52-9.07,8.2-4.59-.28-8.02-4.12-7.9-8.76,.16-4.85,4.19-8.52,9.07-8.2,4.64,.28,8.06,4.12,7.9,8.76Z"/><path class="cls-1" d="M660.09,659.1c-.04,4.97-3.95,8.68-8.91,8.48-4.67-.2-8.22-3.88-8.18-8.64,.04-4.97,3.95-8.68,8.91-8.48,4.71,.2,8.22,3.92,8.18,8.64Z"/><path class="cls-1" d="M683.9,656.51c4.72-.04,8.42,3.47,8.62,8.16,.2,4.97-3.47,8.88-8.42,8.96-4.96,.04-8.74-3.79-8.62-8.76,.08-4.76,3.71-8.32,8.42-8.36Z"/><path class="cls-1" d="M463.99,590.41c-.04,4.89-3.95,8.64-8.83,8.44-4.59-.16-8.14-3.92-8.1-8.56,.04-4.89,3.95-8.64,8.83-8.44,4.59,.2,8.14,3.92,8.1,8.56Z"/><path class="cls-1" d="M759.71,676.9c.12,4.52-3.67,8.48-8.18,8.6s-8.46-3.67-8.58-8.2c-.12-4.52,3.67-8.48,8.18-8.6,4.55-.12,8.5,3.67,8.58,8.2Z"/><path class="cls-1" d="M626.28,654.25c0,4.6-3.71,8.36-8.3,8.4-4.8,.08-8.74-3.96-8.54-8.76,.16-4.56,4.03-8.2,8.62-8.12,4.55,.08,8.26,3.88,8.22,8.48Z"/><path class="cls-1" d="M77.97,37.15c.08,4.6-3.55,8.44-8.1,8.6-4.8,.16-8.83-3.76-8.74-8.56,.08-4.6,3.83-8.32,8.38-8.32s8.34,3.67,8.46,8.28Z"/><path class="cls-1" d="M272.65,445.78c4.59-.04,8.38,3.63,8.54,8.2,.12,4.8-3.83,8.8-8.62,8.68-4.59-.12-8.26-3.92-8.22-8.48,0-4.6,3.71-8.36,8.3-8.4Z"/><path class="cls-1" d="M142.89,256.52c.04,4.6-3.63,8.4-8.18,8.52-4.8,.12-8.79-3.84-8.67-8.64,.12-4.6,3.91-8.28,8.5-8.24,4.55,.04,8.3,3.76,8.34,8.36h.01Z"/><path class="cls-1" d="M584.08,639.84c4.51-.08,8.46,3.88,8.42,8.4-.04,4.52-4.03,8.6-8.5,8.28-4.84-.36-7.7-3.19-8.1-8.04-.36-4.52,3.67-8.56,8.18-8.64h0Z"/><path class="cls-1" d="M300.54,485.87c4.31,.08,8.02,3.96,7.94,8.24-.08,4.32-3.95,8.04-8.22,7.95-4.31-.08-8.02-3.96-7.94-8.24,.08-4.32,3.95-8.04,8.22-7.95Z"/><path class="cls-1" d="M85.06,136.36c4.27-.08,8.14,3.63,8.3,7.91,.16,4.48-3.91,8.56-8.38,8.44-4.27-.12-8.02-3.96-7.98-8.24,0-4.24,3.79-8.03,8.06-8.12h0Z"/><path class="cls-1" d="M793.19,683.12c0,4.28-3.75,8.12-8.02,8.2-4.47,.08-8.5-4-8.34-8.48,.16-4.28,4.07-7.99,8.34-7.91s8.02,3.92,8.02,8.2h0Z"/><path class="cls-1" d="M550.67,650.25c-4.27,.08-8.14-3.63-8.22-7.95-.08-4.28,3.63-8.16,7.94-8.24,4.27-.08,8.14,3.63,8.22,7.95,.08,4.28-3.63,8.16-7.94,8.24Z"/><path class="cls-1" d="M370.01,538.85c-.16,4.48-4.43,8.32-8.87,7.99-4.27-.32-7.86-4.36-7.66-8.56,.16-4.48,4.43-8.32,8.87-7.99,4.23,.32,7.82,4.32,7.66,8.56Z"/><path class="cls-1" d="M63.82,78.86c-4.67,.04-8.38-3.63-8.06-8.04,.32-4.68,3.02-7.35,7.7-7.55,4.43-.2,8.14,3.59,7.86,7.99-.36,4.68-3.1,7.19-7.5,7.59h0Z"/><path class="cls-1" d="M106.5,208.84c4.31-.16,8.18,3.47,8.26,7.83,.08,4.32-3.63,8.28-7.98,8.08-4.63-.24-7.41-2.91-7.9-7.51-.48-4.24,3.3-8.2,7.62-8.4h0Z"/><path class="cls-1" d="M422.89,592.31c-4.35-.12-7.98-4-7.78-8.32,.2-4.36,4.15-8.12,8.42-7.63,4.59,.52,7.25,3.31,7.46,7.95,.2,4.36-3.79,8.12-8.1,7.99h0Z"/><path class="cls-1" d="M183.67,362.28c4.63,.36,7.54,2.7,7.58,7.51,.04,4.73-2.62,7.51-7.38,7.59-4.71,.08-7.49-2.62-7.58-7.39-.08-4.8,2.7-7.23,7.38-7.71Z"/><path class="cls-1" d="M219.01,408.51c-.48,4.68-2.94,7.47-7.7,7.39-4.71-.08-7.42-2.87-7.38-7.59,.08-4.72,2.86-7.43,7.58-7.39,4.8,.08,7.13,2.95,7.5,7.59Z"/><path class="cls-1" d="M524.48,635.92c-.52,4.97-2.94,7.75-7.7,7.71-4.71-.08-7.41-2.83-7.37-7.59,.04-4.72,2.82-7.39,7.58-7.39s7.01,2.99,7.5,7.27h-.01Z"/><path class="cls-1" d="M335.4,533.36c-.52,4.73-2.78,7.55-7.29,7.51-4.47,0-7.17-2.66-7.17-7.15-.04-4.48,2.62-7.15,7.13-7.23,4.55-.04,6.65,2.91,7.33,6.86h0Z"/><path class="cls-1" d="M163.64,329.69c-.44,5.05-2.82,7.87-7.62,7.79-4.76-.08-7.38-2.87-7.29-7.63,.08-4.44,2.7-7.03,7.17-7.15,4.84-.12,7.09,2.79,7.74,6.99h0Z"/><path class="cls-1" d="M87.68,177.54c-.36,4.85-2.54,7.75-7.05,7.91-4.47,.16-7.25-2.42-7.42-6.9-.16-4.48,2.38-7.23,6.85-7.47,4.55-.2,6.77,2.67,7.62,6.46h0Z"/><path class="cls-1" d="M246.38,448.73c-.28,3.68-2.46,6.38-6.97,6.7-4.27,.32-7.78-3.11-7.58-7.39,.24-4.48,2.74-6.99,7.21-7.15,4.07-.12,7.21,3.07,7.34,7.83h0Z"/><path class="cls-1" d="M396.69,578.22c-.48,4.4-2.7,7.23-7.25,7.27-4.47,.04-7.17-2.62-7.21-7.11-.04-4.48,2.58-7.19,7.09-7.23,4.55-.08,6.81,2.71,7.38,7.07h-.01Z"/><path class="cls-1" d="M127.86,297.71c-4.23-.73-6.73-3.15-6.65-7.67,.08-4.28,3.79-7.51,8.02-6.9,4.43,.61,6.77,3.39,6.45,7.87-.36,4.48-3.3,6.54-7.82,6.7Z"/><path class="cls-1" d="M100.46,258.46c-1.77-2.66-4.72-5.21-5.08-8.08-.52-4,2.62-6.74,6.77-6.66,4.15,.08,7.21,2.95,6.49,6.94-.52,2.87-3.55,5.25-5.44,7.87-.93-.04-1.85-.04-2.74-.08h0Z"/><path class="cls-1" d="M66,104.26c-.52,4.72-2.74,7.63-7.25,7.63s-7.13-2.75-7.09-7.23c.04-4.2,2.62-6.78,6.77-6.99,4.55-.2,6.73,2.71,7.58,6.58h-.01Z"/><path class="cls-1" d="M274.59,489.51c-2.66,1.78-5.2,4.72-8.06,5.09-3.99,.53-6.73-2.62-6.61-6.82,.12-4.16,2.94-7.23,6.93-6.5,2.86,.52,5.24,3.55,7.82,5.45,0,.93-.04,1.86-.08,2.79h0Z"/><path class="cls-1" d="M490.47,629.78c-.61,4.68-2.9,7.55-7.42,7.43-4.47-.12-7.09-2.91-6.97-7.39,.12-4.16,2.74-6.74,6.93-6.82,4.55-.08,6.73,2.83,7.46,6.78h0Z"/><path class="cls-1" d="M34.85,.04c.44,3.51,2.94,5.69,6.81,5.81,4.07,.16,6.37-2.14,7.21-5.81,0,0-14.02,0-14.02,0Z"/><path class="cls-1" d="M653.07,694.47c-2.7,1.62-5.52,4.73-8.02,4.48-2.26-.24-5.48-3.92-5.84-6.46-.6-4,2.74-6.99,6.77-6.14,2.66,.57,4.8,3.47,7.17,5.33-.04,.97-.08,1.9-.08,2.79h0Z"/><path class="cls-1" d="M450.33,614.76c3.22,4.04,6.17,6.18,6.73,8.8,.89,4.04-1.89,6.86-6.09,7.07-4.19,.16-7.21-2.46-6.65-6.54,.4-2.66,3.14-5.05,6.01-9.33h0Z"/><path class="cls-1" d="M686.8,700.12c-2.62,1.78-5.28,5.01-7.78,4.84-2.26-.12-5.64-3.63-6.17-6.14-.81-3.96,2.38-7.11,6.45-6.46,2.66,.44,4.96,3.23,7.42,4.97,.04,.97,.08,1.86,.08,2.79h0Z"/><path class="cls-1" d="M53.79,131.39c1.65,2.22,4.31,4.28,4.8,6.74,.77,3.88-1.97,6.99-5.84,6.22-2.34-.48-5.4-3.51-5.76-5.77-.32-2.1,2.54-4.68,3.99-7.07,.93-.04,1.85-.08,2.82-.12h0Z"/><path class="cls-1" d="M357.2,579.47c-5.44-1.25-8.3-3.51-7.38-7.35,.56-2.34,3.55-5.25,5.92-5.73,3.87-.81,6.65,2.22,5.96,6.14-.48,2.46-2.94,4.64-4.51,6.95h.01Z"/><path class="cls-1" d="M81.43,212.11c-2.3,1.62-4.39,4.16-6.89,4.6-3.91,.69-6.89-2.18-6.04-6.02,.52-2.3,3.67-5.33,5.88-5.61,2.14-.24,4.63,2.66,6.97,4.2,.04,.93,.08,1.9,.08,2.83Z"/><path class="cls-1" d="M580.25,673.67c1.37,2.62,4.07,5.41,3.67,7.75-.32,2.1-3.87,4.89-6.29,5.21-3.95,.48-6.41-2.83-5.4-6.66,.64-2.46,3.34-4.36,5.12-6.54,1.01,.08,1.93,.16,2.9,.24h0Z"/><path class="cls-1" d="M610.6,694.19c-1.73-2.42-4.43-4.68-4.92-7.35-.73-3.84,2.01-6.38,6.04-6.46,4.03-.08,6.89,2.3,6.33,6.22-.4,2.67-2.98,5.05-4.59,7.55-.97,0-1.89,0-2.86,.04h0Z"/><path class="cls-1" d="M713.04,697.42c1.69,2.46,4.35,4.73,4.79,7.39,.69,3.88-2.09,6.34-6.12,6.38-4.03,.04-6.85-2.42-6.21-6.3,.44-2.66,3.06-5.01,4.71-7.47h2.83Z"/><path class="cls-1" d="M743.26,717.89c-1.37-2.62-4.07-5.41-3.67-7.75,.32-2.1,3.87-4.89,6.29-5.21,3.95-.49,6.41,2.83,5.4,6.66-.64,2.46-3.34,4.36-5.12,6.54-1.01-.08-1.93-.16-2.9-.24h0Z"/><path class="cls-1" d="M36.94,23.82c1.77,2.38,4.55,4.56,5.12,7.23,.81,3.84-1.85,6.46-5.88,6.58-3.99,.16-6.93-2.14-6.45-6.06,.32-2.71,2.86-5.13,4.43-7.67,.89,0,1.81-.04,2.78-.08Z"/><path class="cls-1" d="M296.07,520.76c1.45,2.38,4.31,5.01,3.95,7.11-.36,2.22-3.87,5.49-5.84,5.41-2.02-.08-5.2-3.63-5.4-5.85-.2-2.1,2.9-4.48,4.51-6.74,.93,0,1.85,.04,2.78,.08h0Z"/><path class="cls-1" d="M176.5,409.4c-1.57-2.3-4.6-4.76-4.35-6.86,.24-2.22,3.51-5.73,5.52-5.77,2.01-.04,5.4,3.31,5.76,5.53,.32,2.1-2.62,4.64-4.11,7.03-.97,.04-1.89,.08-2.82,.08h0Z"/><path class="cls-1" d="M157.07,365.26c-2.34,1.53-4.84,4.48-6.93,4.24-2.22-.28-4.07-3.63-6.09-5.65,2.01-2.02,3.83-5.37,6.09-5.65,2.1-.28,4.59,2.7,6.93,4.24v2.83h0Z"/><path class="cls-1" d="M780.66,710.06c1.41,2.42,4.31,5.13,3.91,7.15-.44,2.18-3.83,4.97-6.16,5.21-1.57,.16-4.96-3.63-4.96-5.65,0-2.26,2.9-4.56,4.55-6.82,.85,0,1.77,.08,2.66,.12h0Z"/><path class="cls-1" d="M544.91,684.25c-2.9-3.67-6.17-6.06-5.88-7.87,.36-2.34,3.55-4.28,5.52-6.38,1.93,1.94,5.2,3.68,5.48,5.82,.24,2.06-2.58,4.48-5.12,8.44h0Z"/><path class="cls-1" d="M213.74,441.74c-3.67,2.91-6.04,6.18-7.86,5.9-2.34-.36-4.27-3.55-6.37-5.53,1.93-1.94,3.67-5.21,5.8-5.49,2.06-.24,4.51,2.58,8.42,5.13h0Z"/><path class="cls-1" d="M131.97,324.16c-3.83,2.7-6.37,5.81-8.18,5.41-2.34-.48-4.07-3.76-6.04-5.85,2.01-1.86,3.95-5.01,6.09-5.17,2.1-.12,4.35,2.83,8.14,5.61h0Z"/><path class="cls-1" d="M31.46,73.37c-2.9-3.67-6.17-6.06-5.88-7.87,.36-2.34,3.55-4.28,5.52-6.38,1.93,1.94,5.2,3.67,5.48,5.81,.24,2.06-2.62,4.52-5.12,8.44Z"/><path class="cls-1" d="M425.39,618.23c-3.87,2.66-6.45,5.73-8.22,5.33-2.34-.52-4.03-3.84-6-5.94,2.05-1.82,4.03-4.97,6.17-5.09,2.05-.12,4.31,2.87,8.06,5.69h-.01Z"/><path class="cls-1" d="M103.6,284.71c-3.59,2.34-6.09,5.09-7.7,4.68-2.14-.57-3.59-3.67-5.32-5.65,1.93-1.61,3.87-4.44,5.84-4.48,1.89-.08,3.87,2.79,7.17,5.45h.01Z"/><path class="cls-1" d="M518.6,669.84c-3.83,2.5-6.05,5.13-7.82,4.84-1.93-.28-4.39-3.15-4.76-5.17-.2-1.33,2.94-4.44,4.67-4.52,1.98-.04,4.07,2.34,7.9,4.85h.01Z"/><path class="cls-1" d="M240.82,481.71c-3.75,2.58-5.92,5.25-7.7,5.05-1.93-.24-4.47-3.03-4.84-5.09-.24-1.33,2.86-4.52,4.55-4.64,1.97-.08,4.07,2.26,7.98,4.68h0Z"/><path class="cls-1" d="M329.19,566.51c-3.42,2.22-5.64,4.72-7.09,4.32-1.97-.52-3.34-3.27-4.96-5.09,1.73-1.49,3.42-4.04,5.28-4.12,1.69-.08,3.55,2.42,6.77,4.89Z"/><path class="cls-1" d="M383.15,618.92c-2.1-3.39-4.31-5.37-4.19-7.23,.08-1.58,3.3-4.4,4.39-4.08,1.89,.52,4.15,2.95,4.47,4.84,.24,1.45-2.3,3.35-4.68,6.46h0Z"/><path class="cls-1" d="M68.09,237.83c2.3,3.11,4.67,4.93,4.55,6.54-.12,1.7-2.62,4.44-4.19,4.48-1.53,.04-4.23-2.5-4.47-4.2-.24-1.57,2.06-3.55,4.11-6.82h0Z"/><path class="cls-1" d="M25.46,91.86c2.01,3.43,4.19,5.49,3.99,7.35-.12,1.53-3.43,4.32-4.51,3.96-1.85-.61-4.07-3.03-4.31-4.97-.2-1.41,2.38-3.27,4.84-6.34h-.01Z"/><path class="cls-1" d="M483.86,664.06c-3.22,2.1-5.2,4.36-6.81,4.12-1.69-.24-3.02-2.91-4.51-4.48,1.61-1.49,3.1-4.04,4.8-4.16,1.65-.16,3.47,2.22,6.53,4.52h0Z"/><path class="cls-1" d="M53.83,171.93c-3.22,2.5-5.24,5.21-6.73,4.93-2.01-.36-3.59-3.03-5.36-4.68,1.61-1.62,3.1-4.32,4.88-4.56,1.73-.2,3.79,2.14,7.21,4.32h0Z"/><path class="cls-1" d="M260.84,528.23c-2.18-3.15-4.47-5.05-4.27-6.58,.24-1.66,2.66-3.8,4.43-4.16,1.09-.2,3.87,2.5,3.91,3.96,.04,1.74-2.01,3.55-4.07,6.78h0Z"/><path class="cls-1" d="M172.51,430.72c1.97,2.42,3.99,3.8,3.95,5.09-.04,1.37-2.05,2.7-3.22,4.08-1.33-1.17-3.55-2.14-3.79-3.51-.28-1.29,1.49-2.99,3.06-5.65h0Z"/><path class="cls-1" d="M117.58,352.5c1.73,2.58,3.63,4.12,3.43,5.37-.2,1.33-2.22,2.99-3.67,3.31-.85,.16-3.1-2.06-3.1-3.19,0-1.45,1.65-2.87,3.34-5.49Z"/><path class="cls-1" d="M450.01,657.44c-2.46,1.9-3.87,3.88-5.16,3.76-1.33-.12-3.14-2.02-3.51-3.47-.24-.85,1.85-3.23,2.98-3.31,1.41-.08,2.98,1.49,5.68,3.03h.01Z"/><path class="cls-1" d="M3.13,30.57C1.52,27.9-.25,26.21,.03,24.99c.28-1.33,2.38-2.87,3.91-3.11,.85-.12,2.94,2.26,2.9,3.39-.12,1.45-1.85,2.79-3.71,5.29h0Z"/><path class="cls-1" d="M144.94,401.73c-1.61-2.38-3.63-4.12-3.34-5.25,.4-1.57,2.54-2.74,3.91-4.08,1.25,1.49,3.22,2.87,3.43,4.48,.16,1.21-2.06,2.66-3.99,4.85h0Z"/><path class="cls-1" d="M710.5,738.93c-2.26,1.41-3.95,3.23-4.92,2.91-1.41-.49-2.3-2.5-3.43-3.84,1.29-.97,2.62-2.75,3.91-2.71,1.21,0,2.42,1.86,4.43,3.64h.01Z"/><path class="cls-1" d="M639.33,721.6c1.69,2.1,3.67,3.59,3.47,4.56-.36,1.45-2.22,2.59-3.47,3.84-1.09-1.17-2.98-2.3-3.1-3.55-.12-1.21,1.57-2.62,3.1-4.85h0Z"/><path class="cls-1" d="M678.06,732.26c-2.09,1.74-3.55,3.76-4.51,3.55-1.49-.32-2.62-2.18-3.87-3.39,1.17-1.13,2.22-3.03,3.51-3.19,1.21-.12,2.62,1.53,4.88,3.03h-.01Z"/></g></g></g></svg>