<?xml version="1.0" encoding="UTF-8"?><svg id="Layer_2" xmlns="http://www.w3.org/2000/svg" viewBox="0 0 86.13 86.09"><defs><style>.cls-1{fill:#142644;}</style></defs><g id="Layer_1-2"><g><path class="cls-1" d="M13.66,43c.83,4.35,1.67,8.64,2.44,12.94,.25,1.39,.97,1.72,2.26,1.55,2.14-.28,4.29-.45,6.43-.67,2.43-.26,4.18,.6,5.12,2.97,1.71,4.31,3.5,8.58,5.19,12.9,1.05,2.69,.52,4.49-1.83,6.02-3.4,2.22-6.84,4.38-10.32,6.48-2.37,1.43-4.37,1.15-6.28-.82C4.81,72.07-.59,57.29,.05,40.31,.61,25.64,6.09,12.97,16.16,2.27c2.55-2.71,4.22-2.95,7.42-.96,3.17,1.97,6.34,3.94,9.48,5.95,2.5,1.6,3.14,3.15,2.12,5.89-1.67,4.5-3.5,8.94-5.31,13.39-.94,2.32-2.8,3.17-5.2,2.92-2.14-.22-4.28-.48-6.42-.79-1.29-.19-2.01,.17-2.25,1.56-.73,4.22-1.54,8.43-2.34,12.78Z"/><path class="cls-1" d="M86.13,43.81c-.24,13.77-5.66,26.1-16.82,35.84-1.65,1.44-3.4,2.1-5.45,1.15-2.46-1.13-2.75-4.42-.67-6.74,2.65-2.95,5.6-5.7,7.87-8.92,10.95-15.58,8.52-37.83-5.37-50.91-.85-.8-1.74-1.54-2.54-2.38-1.82-1.91-1.9-4.37-.27-6,1.58-1.58,4.08-1.55,6.07,.15,5.36,4.59,9.66,10.01,12.64,16.43,3.14,6.75,4.53,13.08,4.55,21.39Z"/><path class="cls-1" d="M70.09,42.58c-.34,10.01-3.84,18.13-11.12,24.51-2.44,2.14-4.91,2.24-6.59,.34-1.51-1.7-1.21-4.4,1-6.41,6.03-5.5,8.96-12.22,8.25-20.4-.53-6.15-3.31-11.17-7.72-15.43-1.06-1.02-2.13-2.51-2.26-3.87-.11-1.17,.84-2.85,1.85-3.61,1.58-1.19,3.49-.74,5.01,.6,5.87,5.15,9.74,11.46,10.98,19.24,.29,1.8,.43,3.61,.6,5.03Z"/><path class="cls-1" d="M53.89,43.43c-.32,4.58-1.87,8.4-5.14,11.43-2,1.85-4.56,2.05-6.26,.46-1.78-1.66-1.7-3.99,.21-6.17,4-4.56,4.01-7.74,.02-12.14-1.94-2.15-2.05-4.5-.28-6.17,1.74-1.65,4.24-1.5,6.24,.35,3.63,3.36,5.12,7.6,5.21,12.24Z"/></g></g></svg>